M48
; DRILL file {KiCad (5.1.5)-3} date 1/17/2020 10:27:00 AM
; FORMAT={-:-/ absolute / inch / decimal}
; #@! TF.CreationDate,2020-01-17T10:27:00-06:00
; #@! TF.GenerationSoftware,Kicad,Pcbnew,(5.1.5)-3
; #@! TF.FileFunction,Plated,1,2,PTH
FMAT,2
INCH
T1C0.0409
T2C0.0433
T3C0.0472
%
G90
G05
T1
X1.6925Y-3.4275
X1.7925Y-3.4275
X0.9425Y-1.9275
X1.0425Y-1.9275
X10.6925Y-1.1775
X10.7925Y-1.1775
X8.4425Y-1.1775
X8.5425Y-1.1775
X4.6925Y-3.4275
X4.7925Y-3.4275
X3.1925Y-3.4275
X3.2925Y-3.4275
X2.4425Y-2.6775
X2.5425Y-2.6775
X1.6925Y-1.9275
X1.7925Y-1.9275
X0.9425Y-3.4275
X1.0425Y-3.4275
X8.4425Y-1.9275
X8.5425Y-1.9275
X9.1925Y-3.4275
X9.2925Y-3.4275
X10.6925Y-1.9275
X10.7925Y-1.9275
X3.9425Y-1.1775
X4.0425Y-1.1775
X2.4425Y-3.4275
X2.5425Y-3.4275
X3.1925Y-2.6775
X3.2925Y-2.6775
X1.6925Y-2.6775
X1.7925Y-2.6775
X1.6925Y-1.1775
X1.7925Y-1.1775
X8.4425Y-2.6775
X8.5425Y-2.6775
X7.6925Y-1.1775
X7.7925Y-1.1775
X8.4425Y-3.4275
X8.5425Y-3.4275
X6.9425Y-1.1775
X7.0425Y-1.1775
X4.6925Y-1.9275
X4.7925Y-1.9275
X9.9425Y-1.9275
X10.0425Y-1.9275
X9.9425Y-3.4275
X10.0425Y-3.4275
X4.6925Y-1.1775
X4.7925Y-1.1775
X9.1925Y-1.1775
X9.2925Y-1.1775
X3.9425Y-3.4275
X4.0425Y-3.4275
X3.1925Y-1.9275
X3.2925Y-1.9275
X0.9425Y-1.1775
X1.0425Y-1.1775
X9.1925Y-1.9275
X9.2925Y-1.9275
X9.1925Y-2.6775
X9.2925Y-2.6775
X10.6925Y-3.4275
X10.7925Y-3.4275
X7.6925Y-2.6775
X7.7925Y-2.6775
X3.9425Y-2.6775
X4.0425Y-2.6775
X3.1925Y-1.1775
X3.2925Y-1.1775
X0.9425Y-2.6775
X1.0425Y-2.6775
X9.9425Y-2.6775
X10.0425Y-2.6775
X7.6925Y-1.9275
X7.7925Y-1.9275
X6.9425Y-1.9275
X7.0425Y-1.9275
X2.4425Y-1.9275
X2.5425Y-1.9275
X4.6925Y-2.6775
X4.7925Y-2.6775
X2.4425Y-1.1775
X2.5425Y-1.1775
X9.9425Y-1.1775
X10.0425Y-1.1775
X7.6925Y-3.4275
X7.7925Y-3.4275
X3.9425Y-1.9275
X4.0425Y-1.9275
X10.6925Y-2.6775
X10.7925Y-2.6775
X6.9425Y-3.4275
X7.0425Y-3.4275
X6.9425Y-2.6775
X7.0425Y-2.6775
T2
X5.5675Y-0.6613
X5.5675Y-0.7612
X5.5675Y-0.8612
X5.5675Y-0.9612
X5.5675Y-1.0613
X5.5675Y-1.1612
X5.5675Y-1.2612
X5.5675Y-1.3613
X5.5675Y-1.4612
X5.5675Y-1.5613
X5.5675Y-1.6612
X5.5675Y-1.7612
X6.1675Y-0.6613
X6.1675Y-0.7612
X6.1675Y-0.8612
X6.1675Y-0.9612
X6.1675Y-1.0613
X6.1675Y-1.1612
X6.1675Y-1.2612
X6.1675Y-1.3613
X6.1675Y-1.4612
X6.1675Y-1.5613
X6.1675Y-1.6612
X6.1675Y-1.7612
T3
X2.4925Y-0.7602
X2.6894Y-0.8429
X9.9925Y-0.7602
X10.1894Y-0.8429
X7.7425Y-3.0102
X7.9394Y-3.0929
X3.9925Y-1.5102
X4.1894Y-1.5929
X10.7425Y-2.2602
X10.9394Y-2.3429
X6.9925Y-3.0102
X7.1894Y-3.0929
X6.9925Y-2.2602
X7.1894Y-2.3429
X1.7425Y-3.0102
X1.9394Y-3.0929
X0.9925Y-1.5102
X1.1894Y-1.5929
X10.7425Y-0.7602
X10.9394Y-0.8429
X8.4925Y-0.7602
X8.6894Y-0.8429
X4.7425Y-3.0102
X4.9394Y-3.0929
X3.2425Y-3.0102
X3.4394Y-3.0929
X2.4925Y-2.2602
X2.6894Y-2.3429
X1.7425Y-1.5102
X1.9394Y-1.5929
X0.9925Y-3.0102
X1.1894Y-3.0929
X8.4925Y-1.5102
X8.6894Y-1.5929
X9.2425Y-3.0102
X9.4394Y-3.0929
X10.7425Y-1.5102
X10.9394Y-1.5929
X3.9925Y-0.7602
X4.1894Y-0.8429
X2.4925Y-3.0102
X2.6894Y-3.0929
X3.2425Y-2.2602
X3.4394Y-2.3429
X1.7425Y-2.2602
X1.9394Y-2.3429
X1.7425Y-0.7602
X1.9394Y-0.8429
X8.4925Y-2.2602
X8.6894Y-2.3429
X7.7425Y-0.7602
X7.9394Y-0.8429
X8.4925Y-3.0102
X8.6894Y-3.0929
X6.9925Y-0.7602
X7.1894Y-0.8429
X4.7425Y-1.5102
X4.9394Y-1.5929
X9.9925Y-1.5102
X10.1894Y-1.5929
X9.9925Y-3.0102
X10.1894Y-3.0929
X4.7425Y-0.7602
X4.9394Y-0.8429
X9.2425Y-0.7602
X9.4394Y-0.8429
X3.9925Y-3.0102
X4.1894Y-3.0929
X3.2425Y-1.5102
X3.4394Y-1.5929
X0.9925Y-0.7602
X1.1894Y-0.8429
X9.2425Y-1.5102
X9.4394Y-1.5929
X9.2425Y-2.2602
X9.4394Y-2.3429
X10.7425Y-3.0102
X10.9394Y-3.0929
X7.7425Y-2.2602
X7.9394Y-2.3429
X3.9925Y-2.2602
X4.1894Y-2.3429
X3.2425Y-0.7602
X3.4394Y-0.8429
X0.9925Y-2.2602
X1.1894Y-2.3429
X9.9925Y-2.2602
X10.1894Y-2.3429
X7.7425Y-1.5102
X7.9394Y-1.5929
X6.9925Y-1.5102
X7.1894Y-1.5929
X2.4925Y-1.5102
X2.6894Y-1.5929
X4.7425Y-2.2602
X4.9394Y-2.3429
T0
M30
