G04 #@! TF.GenerationSoftware,KiCad,Pcbnew,(5.1.5)-3*
G04 #@! TF.CreationDate,2019-12-16T17:40:03-06:00*
G04 #@! TF.ProjectId,starter-ortho,73746172-7465-4722-9d6f-7274686f2e6b,rev?*
G04 #@! TF.SameCoordinates,Original*
G04 #@! TF.FileFunction,Copper,L1,Top*
G04 #@! TF.FilePolarity,Positive*
%FSLAX46Y46*%
G04 Gerber Fmt 4.6, Leading zero omitted, Abs format (unit mm)*
G04 Created by KiCad (PCBNEW (5.1.5)-3) date 2019-12-16 17:40:03*
%MOMM*%
%LPD*%
G04 APERTURE LIST*
%ADD10R,1.905000X1.905000*%
%ADD11C,1.905000*%
%ADD12C,2.000000*%
%ADD13C,1.600000*%
%ADD14R,1.600000X1.600000*%
%ADD15R,1.800000X1.100000*%
%ADD16C,0.254000*%
%ADD17C,0.381000*%
G04 APERTURE END LIST*
D10*
X274129500Y-87059500D03*
D11*
X271589500Y-87059500D03*
D12*
X277859500Y-78559500D03*
X272859500Y-76459500D03*
D10*
X274129500Y-68009500D03*
D11*
X271589500Y-68009500D03*
D12*
X277859500Y-59509500D03*
X272859500Y-57409500D03*
D10*
X274129500Y-48959500D03*
D11*
X271589500Y-48959500D03*
D12*
X277859500Y-40459500D03*
X272859500Y-38359500D03*
D10*
X274129500Y-29909500D03*
D11*
X271589500Y-29909500D03*
D12*
X277859500Y-21409500D03*
X272859500Y-19309500D03*
D10*
X255079500Y-87059500D03*
D11*
X252539500Y-87059500D03*
D12*
X258809500Y-78559500D03*
X253809500Y-76459500D03*
D10*
X255079500Y-68009500D03*
D11*
X252539500Y-68009500D03*
D12*
X258809500Y-59509500D03*
X253809500Y-57409500D03*
D10*
X255079500Y-48959500D03*
D11*
X252539500Y-48959500D03*
D12*
X258809500Y-40459500D03*
X253809500Y-38359500D03*
D10*
X255079500Y-29909500D03*
D11*
X252539500Y-29909500D03*
D12*
X258809500Y-21409500D03*
X253809500Y-19309500D03*
D10*
X236029500Y-87059500D03*
D11*
X233489500Y-87059500D03*
D12*
X239759500Y-78559500D03*
X234759500Y-76459500D03*
D10*
X236029500Y-68009500D03*
D11*
X233489500Y-68009500D03*
D12*
X239759500Y-59509500D03*
X234759500Y-57409500D03*
D10*
X236029500Y-48959500D03*
D11*
X233489500Y-48959500D03*
D12*
X239759500Y-40459500D03*
X234759500Y-38359500D03*
D10*
X236029500Y-29909500D03*
D11*
X233489500Y-29909500D03*
D12*
X239759500Y-21409500D03*
X234759500Y-19309500D03*
D10*
X216979500Y-87059500D03*
D11*
X214439500Y-87059500D03*
D12*
X220709500Y-78559500D03*
X215709500Y-76459500D03*
D10*
X216979500Y-68009500D03*
D11*
X214439500Y-68009500D03*
D12*
X220709500Y-59509500D03*
X215709500Y-57409500D03*
D10*
X216979500Y-48959500D03*
D11*
X214439500Y-48959500D03*
D12*
X220709500Y-40459500D03*
X215709500Y-38359500D03*
D10*
X216979500Y-29909500D03*
D11*
X214439500Y-29909500D03*
D12*
X220709500Y-21409500D03*
X215709500Y-19309500D03*
D10*
X197929500Y-87059500D03*
D11*
X195389500Y-87059500D03*
D12*
X201659500Y-78559500D03*
X196659500Y-76459500D03*
D10*
X197929500Y-68009500D03*
D11*
X195389500Y-68009500D03*
D12*
X201659500Y-59509500D03*
X196659500Y-57409500D03*
D10*
X197929500Y-48959500D03*
D11*
X195389500Y-48959500D03*
D12*
X201659500Y-40459500D03*
X196659500Y-38359500D03*
D10*
X197929500Y-29909500D03*
D11*
X195389500Y-29909500D03*
D12*
X201659500Y-21409500D03*
X196659500Y-19309500D03*
D10*
X178879500Y-87059500D03*
D11*
X176339500Y-87059500D03*
D12*
X182609500Y-78559500D03*
X177609500Y-76459500D03*
D10*
X178879500Y-68009500D03*
D11*
X176339500Y-68009500D03*
D12*
X182609500Y-59509500D03*
X177609500Y-57409500D03*
D10*
X178879500Y-48959500D03*
D11*
X176339500Y-48959500D03*
D12*
X182609500Y-40459500D03*
X177609500Y-38359500D03*
D10*
X178879500Y-29909500D03*
D11*
X176339500Y-29909500D03*
D12*
X182609500Y-21409500D03*
X177609500Y-19309500D03*
D10*
X121729500Y-87059500D03*
D11*
X119189500Y-87059500D03*
D12*
X125459500Y-78559500D03*
X120459500Y-76459500D03*
D10*
X121729500Y-68009500D03*
D11*
X119189500Y-68009500D03*
D12*
X125459500Y-59509500D03*
X120459500Y-57409500D03*
D10*
X121729500Y-48959500D03*
D11*
X119189500Y-48959500D03*
D12*
X125459500Y-40459500D03*
X120459500Y-38359500D03*
D10*
X121729500Y-29909500D03*
D11*
X119189500Y-29909500D03*
D12*
X125459500Y-21409500D03*
X120459500Y-19309500D03*
D10*
X102679500Y-87059500D03*
D11*
X100139500Y-87059500D03*
D12*
X106409500Y-78559500D03*
X101409500Y-76459500D03*
D10*
X102679500Y-68009500D03*
D11*
X100139500Y-68009500D03*
D12*
X106409500Y-59509500D03*
X101409500Y-57409500D03*
D10*
X102679500Y-48959500D03*
D11*
X100139500Y-48959500D03*
D12*
X106409500Y-40459500D03*
X101409500Y-38359500D03*
D10*
X102679500Y-29909500D03*
D11*
X100139500Y-29909500D03*
D12*
X106409500Y-21409500D03*
X101409500Y-19309500D03*
D10*
X83629500Y-87059500D03*
D11*
X81089500Y-87059500D03*
D12*
X87359500Y-78559500D03*
X82359500Y-76459500D03*
D10*
X83629500Y-68009500D03*
D11*
X81089500Y-68009500D03*
D12*
X87359500Y-59509500D03*
X82359500Y-57409500D03*
D10*
X83629500Y-48959500D03*
D11*
X81089500Y-48959500D03*
D12*
X87359500Y-40459500D03*
X82359500Y-38359500D03*
D10*
X83629500Y-29909500D03*
D11*
X81089500Y-29909500D03*
D12*
X87359500Y-21409500D03*
X82359500Y-19309500D03*
D10*
X64579500Y-87059500D03*
D11*
X62039500Y-87059500D03*
D12*
X68309500Y-78559500D03*
X63309500Y-76459500D03*
D10*
X64579500Y-68009500D03*
D11*
X62039500Y-68009500D03*
D12*
X68309500Y-59509500D03*
X63309500Y-57409500D03*
D10*
X64579500Y-48959500D03*
D11*
X62039500Y-48959500D03*
D12*
X68309500Y-40459500D03*
X63309500Y-38359500D03*
D10*
X64579500Y-29909500D03*
D11*
X62039500Y-29909500D03*
D12*
X68309500Y-21409500D03*
X63309500Y-19309500D03*
D10*
X45529500Y-87059500D03*
D11*
X42989500Y-87059500D03*
D12*
X49259500Y-78559500D03*
X44259500Y-76459500D03*
D10*
X45529500Y-68009500D03*
D11*
X42989500Y-68009500D03*
D12*
X49259500Y-59509500D03*
X44259500Y-57409500D03*
D10*
X45529500Y-48959500D03*
D11*
X42989500Y-48959500D03*
D12*
X49259500Y-40459500D03*
X44259500Y-38359500D03*
D10*
X45529500Y-29909500D03*
D11*
X42989500Y-29909500D03*
D12*
X49259500Y-21409500D03*
X44259500Y-19309500D03*
D10*
X26479500Y-87059500D03*
D11*
X23939500Y-87059500D03*
D12*
X30209500Y-78559500D03*
X25209500Y-76459500D03*
D10*
X26479500Y-68009500D03*
D11*
X23939500Y-68009500D03*
D12*
X30209500Y-59509500D03*
X25209500Y-57409500D03*
D10*
X26479500Y-48959500D03*
D11*
X23939500Y-48959500D03*
D12*
X30209500Y-40459500D03*
X25209500Y-38359500D03*
D10*
X26479500Y-29909500D03*
D11*
X23939500Y-29909500D03*
D12*
X30209500Y-21409500D03*
X25209500Y-19309500D03*
D13*
X141414500Y-16795750D03*
X141414500Y-19335750D03*
X141414500Y-21875750D03*
X141414500Y-24415750D03*
X141414500Y-26955750D03*
X141414500Y-29495750D03*
X141414500Y-32035750D03*
X141414500Y-34575750D03*
X141414500Y-37115750D03*
X141414500Y-39655750D03*
X141414500Y-42195750D03*
X141414500Y-44735750D03*
X156654500Y-44735750D03*
X156654500Y-42195750D03*
X156654500Y-39655750D03*
X156654500Y-37115750D03*
X156654500Y-34575750D03*
X156654500Y-32035750D03*
X156654500Y-29495750D03*
X156654500Y-26955750D03*
X156654500Y-24415750D03*
X156654500Y-21875750D03*
X156654500Y-19335750D03*
D14*
X156654500Y-16795750D03*
D15*
X152071000Y-48727750D03*
X145871000Y-52427750D03*
X152071000Y-52427750D03*
X145871000Y-48727750D03*
D16*
X29209501Y-39459501D02*
X30209500Y-40459500D01*
X29209501Y-22409499D02*
X29209501Y-39459501D01*
X30209500Y-21409500D02*
X29209501Y-22409499D01*
X29209501Y-77559501D02*
X30209500Y-78559500D01*
X29209501Y-60509499D02*
X29209501Y-77559501D01*
X30209500Y-59509500D02*
X29209501Y-60509499D01*
X29209501Y-58509501D02*
X30209500Y-59509500D01*
X29209501Y-41459499D02*
X29209501Y-58509501D01*
X30209500Y-40459500D02*
X29209501Y-41459499D01*
X137731500Y-23272750D02*
X141414500Y-26955750D01*
X137668000Y-23265683D02*
X137668000Y-23272750D01*
X31209499Y-20409501D02*
X31209499Y-20384251D01*
X137668000Y-23272750D02*
X137731500Y-23272750D01*
X30209500Y-21409500D02*
X31209499Y-20409501D01*
X31209499Y-20384251D02*
X35814000Y-15779750D01*
X130182067Y-15779750D02*
X137668000Y-23265683D01*
X35814000Y-15779750D02*
X130182067Y-15779750D01*
X48259501Y-23823712D02*
X48259501Y-39459501D01*
X48259501Y-39459501D02*
X49259500Y-40459500D01*
X49259500Y-21409500D02*
X49259500Y-22823713D01*
X49259500Y-22823713D02*
X48259501Y-23823712D01*
X48259501Y-58509501D02*
X49259500Y-59509500D01*
X48259501Y-41459499D02*
X48259501Y-58509501D01*
X49259500Y-40459500D02*
X48259501Y-41459499D01*
X48259501Y-77559501D02*
X49259500Y-78559500D01*
X48259501Y-60509499D02*
X48259501Y-77559501D01*
X49259500Y-59509500D02*
X48259501Y-60509499D01*
X129994010Y-18075260D02*
X141414500Y-29495750D01*
X50259499Y-20409501D02*
X50259499Y-20384251D01*
X50259499Y-20384251D02*
X54409990Y-16233760D01*
X49259500Y-21409500D02*
X50259499Y-20409501D01*
X54409990Y-16233760D02*
X129994010Y-16233760D01*
X129994010Y-16233760D02*
X129994010Y-18075260D01*
X67309501Y-39459501D02*
X68309500Y-40459500D01*
X67309501Y-22409499D02*
X67309501Y-39459501D01*
X68309500Y-21409500D02*
X67309501Y-22409499D01*
X67309501Y-58509501D02*
X68309500Y-59509500D01*
X67309501Y-41459499D02*
X67309501Y-58509501D01*
X68309500Y-40459500D02*
X67309501Y-41459499D01*
X67309501Y-60509499D02*
X67309501Y-77559501D01*
X67309501Y-77559501D02*
X68309500Y-78559500D01*
X68309500Y-59509500D02*
X67309501Y-60509499D01*
X86359501Y-39459501D02*
X87359500Y-40459500D01*
X86359501Y-22409499D02*
X86359501Y-39459501D01*
X87359500Y-21409500D02*
X86359501Y-22409499D01*
X86359501Y-58509501D02*
X87359500Y-59509500D01*
X86359501Y-41459499D02*
X86359501Y-58509501D01*
X87359500Y-40459500D02*
X86359501Y-41459499D01*
X86359501Y-77559501D02*
X87359500Y-78559500D01*
X86359501Y-60509499D02*
X86359501Y-77559501D01*
X87359500Y-59509500D02*
X86359501Y-60509499D01*
X105409501Y-39459501D02*
X106409500Y-40459500D01*
X105409501Y-22409499D02*
X105409501Y-39459501D01*
X106409500Y-21409500D02*
X105409501Y-22409499D01*
X105409501Y-58509501D02*
X106409500Y-59509500D01*
X105409501Y-41459499D02*
X105409501Y-58509501D01*
X106409500Y-40459500D02*
X105409501Y-41459499D01*
X105409501Y-77559501D02*
X106409500Y-78559500D01*
X105409501Y-60509499D02*
X105409501Y-77559501D01*
X106409500Y-59509500D02*
X105409501Y-60509499D01*
X124459501Y-39459501D02*
X125459500Y-40459500D01*
X124459501Y-22409499D02*
X124459501Y-39459501D01*
X125459500Y-21409500D02*
X124459501Y-22409499D01*
X124459501Y-58509501D02*
X125459500Y-59509500D01*
X124459501Y-41459499D02*
X124459501Y-58509501D01*
X125459500Y-40459500D02*
X124459501Y-41459499D01*
X124459501Y-77559501D02*
X125459500Y-78559500D01*
X124459501Y-60509499D02*
X124459501Y-77559501D01*
X125459500Y-59509500D02*
X124459501Y-60509499D01*
X181609501Y-39459501D02*
X182609500Y-40459500D01*
X181609501Y-22409499D02*
X181609501Y-39459501D01*
X182609500Y-21409500D02*
X181609501Y-22409499D01*
X181609501Y-58509501D02*
X182609500Y-59509500D01*
X181609501Y-41459499D02*
X181609501Y-58509501D01*
X182609500Y-40459500D02*
X181609501Y-41459499D01*
X181609501Y-77559501D02*
X182609500Y-78559500D01*
X181609501Y-60509499D02*
X181609501Y-77559501D01*
X182609500Y-59509500D02*
X181609501Y-60509499D01*
X200659501Y-22409499D02*
X200659501Y-39459501D01*
X200659501Y-39459501D02*
X201659500Y-40459500D01*
X201659500Y-21409500D02*
X200659501Y-22409499D01*
X200659501Y-41459499D02*
X200659501Y-58509501D01*
X200659501Y-58509501D02*
X201659500Y-59509500D01*
X201659500Y-40459500D02*
X200659501Y-41459499D01*
X200659501Y-77559501D02*
X201659500Y-78559500D01*
X200659501Y-60509499D02*
X200659501Y-77559501D01*
X201659500Y-59509500D02*
X200659501Y-60509499D01*
X219709501Y-39459501D02*
X220709500Y-40459500D01*
X219709501Y-22409499D02*
X219709501Y-39459501D01*
X220709500Y-21409500D02*
X219709501Y-22409499D01*
X219709501Y-58509501D02*
X220709500Y-59509500D01*
X219709501Y-41459499D02*
X219709501Y-58509501D01*
X220709500Y-40459500D02*
X219709501Y-41459499D01*
X219709501Y-77559501D02*
X220709500Y-78559500D01*
X219709501Y-60509499D02*
X219709501Y-77559501D01*
X220709500Y-59509500D02*
X219709501Y-60509499D01*
X238759501Y-39459501D02*
X239759500Y-40459500D01*
X238759501Y-22409499D02*
X238759501Y-39459501D01*
X239759500Y-21409500D02*
X238759501Y-22409499D01*
X238759501Y-58509501D02*
X239759500Y-59509500D01*
X238759501Y-41459499D02*
X238759501Y-58509501D01*
X239759500Y-40459500D02*
X238759501Y-41459499D01*
X238759501Y-77559501D02*
X239759500Y-78559500D01*
X238759501Y-60509499D02*
X238759501Y-77559501D01*
X239759500Y-59509500D02*
X238759501Y-60509499D01*
X257809501Y-39459501D02*
X258809500Y-40459500D01*
X257809501Y-22409499D02*
X257809501Y-39459501D01*
X258809500Y-21409500D02*
X257809501Y-22409499D01*
X257809501Y-58509501D02*
X258809500Y-59509500D01*
X257809501Y-41459499D02*
X257809501Y-58509501D01*
X258809500Y-40459500D02*
X257809501Y-41459499D01*
X257809501Y-77559501D02*
X258809500Y-78559500D01*
X257809501Y-60509499D02*
X257809501Y-77559501D01*
X258809500Y-59509500D02*
X257809501Y-60509499D01*
X276859501Y-39459501D02*
X277859500Y-40459500D01*
X276859501Y-22409499D02*
X276859501Y-39459501D01*
X277859500Y-21409500D02*
X276859501Y-22409499D01*
X276859501Y-58509501D02*
X277859500Y-59509500D01*
X276859501Y-41459499D02*
X276859501Y-58509501D01*
X277859500Y-40459500D02*
X276859501Y-41459499D01*
X276859501Y-77559501D02*
X277859500Y-78559500D01*
X276859501Y-60509499D02*
X276859501Y-77559501D01*
X277859500Y-59509500D02*
X276859501Y-60509499D01*
D17*
X155003000Y-52459500D02*
X153722000Y-52459500D01*
X155463999Y-51998501D02*
X155003000Y-52459500D01*
X155463999Y-25606251D02*
X155463999Y-51998501D01*
X156654500Y-24415750D02*
X155463999Y-25606251D01*
X156654500Y-21875750D02*
X156654500Y-24415750D01*
X143954500Y-21875750D02*
X156654500Y-21875750D01*
X141414500Y-19335750D02*
X143954500Y-21875750D01*
X153690250Y-52427750D02*
X152071000Y-52427750D01*
X153722000Y-52459500D02*
X153690250Y-52427750D01*
D16*
X145871000Y-26332250D02*
X141414500Y-21875750D01*
X145871000Y-48727750D02*
X145871000Y-26332250D01*
M02*
