M48
; DRILL file {KiCad (5.1.5)-3} date 1/17/2020 10:27:00 AM
; FORMAT={-:-/ absolute / inch / decimal}
; #@! TF.CreationDate,2020-01-17T10:27:00-06:00
; #@! TF.GenerationSoftware,Kicad,Pcbnew,(5.1.5)-3
; #@! TF.FileFunction,NonPlated,1,2,NPTH
FMAT,2
INCH
T1C0.0472
T2C0.0748
T3C0.1339
%
G90
G05
T1
X1.537Y-3.4079
X0.787Y-1.9079
X10.537Y-1.1579
X8.287Y-1.1579
X4.537Y-3.4079
X3.037Y-3.4079
X2.287Y-2.6579
X1.537Y-1.9079
X0.787Y-3.4079
X8.287Y-1.9079
X9.037Y-3.4079
X10.537Y-1.9079
X3.787Y-1.1579
X2.287Y-3.4079
X3.037Y-2.6579
X1.537Y-2.6579
X1.537Y-1.1579
X8.287Y-2.6579
X7.537Y-1.1579
X8.287Y-3.4079
X6.787Y-1.1579
X4.537Y-1.9079
X9.787Y-1.9079
X9.787Y-3.4079
X4.537Y-1.1579
X9.037Y-1.1579
X3.787Y-3.4079
X3.037Y-1.9079
X0.787Y-1.1579
X9.037Y-1.9079
X9.037Y-2.6579
X10.537Y-3.4079
X7.537Y-2.6579
X3.787Y-2.6579
X3.037Y-1.1579
X0.787Y-2.6579
X9.787Y-2.6579
X7.537Y-1.9079
X6.787Y-1.9079
X2.287Y-1.9079
X4.537Y-2.6579
X2.287Y-1.1579
X9.787Y-1.1579
X7.537Y-3.4079
X3.787Y-1.9079
X10.537Y-2.6579
X6.787Y-3.4079
X6.787Y-2.6579
T2
X1.526Y-3.2425
X1.959Y-3.2425
X0.776Y-1.7425
X1.209Y-1.7425
X10.526Y-0.9925
X10.959Y-0.9925
X8.276Y-0.9925
X8.709Y-0.9925
X4.526Y-3.2425
X4.959Y-3.2425
X3.026Y-3.2425
X3.459Y-3.2425
X2.276Y-2.4925
X2.709Y-2.4925
X1.526Y-1.7425
X1.959Y-1.7425
X0.776Y-3.2425
X1.209Y-3.2425
X8.276Y-1.7425
X8.709Y-1.7425
X9.026Y-3.2425
X9.459Y-3.2425
X10.526Y-1.7425
X10.959Y-1.7425
X3.776Y-0.9925
X4.209Y-0.9925
X2.276Y-3.2425
X2.709Y-3.2425
X3.026Y-2.4925
X3.459Y-2.4925
X1.526Y-2.4925
X1.959Y-2.4925
X1.526Y-0.9925
X1.959Y-0.9925
X8.276Y-2.4925
X8.709Y-2.4925
X7.526Y-0.9925
X7.959Y-0.9925
X8.276Y-3.2425
X8.709Y-3.2425
X6.776Y-0.9925
X7.209Y-0.9925
X4.526Y-1.7425
X4.959Y-1.7425
X9.776Y-1.7425
X10.209Y-1.7425
X9.776Y-3.2425
X10.209Y-3.2425
X4.526Y-0.9925
X4.959Y-0.9925
X9.026Y-0.9925
X9.459Y-0.9925
X3.776Y-3.2425
X4.209Y-3.2425
X3.026Y-1.7425
X3.459Y-1.7425
X0.776Y-0.9925
X1.209Y-0.9925
X9.026Y-1.7425
X9.459Y-1.7425
X9.026Y-2.4925
X9.459Y-2.4925
X10.526Y-3.2425
X10.959Y-3.2425
X7.526Y-2.4925
X7.959Y-2.4925
X3.776Y-2.4925
X4.209Y-2.4925
X3.026Y-0.9925
X3.459Y-0.9925
X0.776Y-2.4925
X1.209Y-2.4925
X9.776Y-2.4925
X10.209Y-2.4925
X7.526Y-1.7425
X7.959Y-1.7425
X6.776Y-1.7425
X7.209Y-1.7425
X2.276Y-1.7425
X2.709Y-1.7425
X4.526Y-2.4925
X4.959Y-2.4925
X2.276Y-0.9925
X2.709Y-0.9925
X9.776Y-0.9925
X10.209Y-0.9925
X7.526Y-3.2425
X7.959Y-3.2425
X3.776Y-1.7425
X4.209Y-1.7425
X10.526Y-2.4925
X10.959Y-2.4925
X6.776Y-3.2425
X7.209Y-3.2425
X6.776Y-2.4925
X7.209Y-2.4925
T3
X1.7425Y-3.2425
X0.9925Y-1.7425
X10.7425Y-0.9925
X8.4925Y-0.9925
X4.7425Y-3.2425
X3.2425Y-3.2425
X2.4925Y-2.4925
X1.7425Y-1.7425
X0.9925Y-3.2425
X8.4925Y-1.7425
X9.2425Y-3.2425
X10.7425Y-1.7425
X3.9925Y-0.9925
X2.4925Y-3.2425
X3.2425Y-2.4925
X1.7425Y-2.4925
X1.7425Y-0.9925
X8.4925Y-2.4925
X7.7425Y-0.9925
X8.4925Y-3.2425
X6.9925Y-0.9925
X4.7425Y-1.7425
X9.9925Y-1.7425
X9.9925Y-3.2425
X4.7425Y-0.9925
X9.2425Y-0.9925
X3.9925Y-3.2425
X3.2425Y-1.7425
X0.9925Y-0.9925
X9.2425Y-1.7425
X9.2425Y-2.4925
X10.7425Y-3.2425
X7.7425Y-2.4925
X3.9925Y-2.4925
X3.2425Y-0.9925
X0.9925Y-2.4925
X9.9925Y-2.4925
X7.7425Y-1.7425
X6.9925Y-1.7425
X2.4925Y-1.7425
X4.7425Y-2.4925
X2.4925Y-0.9925
X9.9925Y-0.9925
X7.7425Y-3.2425
X3.9925Y-1.7425
X10.7425Y-2.4925
X6.9925Y-3.2425
X6.9925Y-2.4925
T0
M30
