G04 #@! TF.GenerationSoftware,KiCad,Pcbnew,(5.1.5)-3*
G04 #@! TF.CreationDate,2020-07-05T20:59:28-05:00*
G04 #@! TF.ProjectId,starter-ortho,73746172-7465-4722-9d6f-7274686f2e6b,rev?*
G04 #@! TF.SameCoordinates,Original*
G04 #@! TF.FileFunction,Legend,Top*
G04 #@! TF.FilePolarity,Positive*
%FSLAX46Y46*%
G04 Gerber Fmt 4.6, Leading zero omitted, Abs format (unit mm)*
G04 Created by KiCad (PCBNEW (5.1.5)-3) date 2020-07-05 20:59:28*
%MOMM*%
%LPD*%
G04 APERTURE LIST*
%ADD10C,0.075000*%
%ADD11C,0.150000*%
%ADD12C,0.300000*%
%ADD13C,0.120000*%
%ADD14C,1.302000*%
%ADD15C,2.002000*%
%ADD16C,3.502000*%
%ADD17C,1.702000*%
%ADD18R,1.702000X1.702000*%
%ADD19R,1.902000X1.202000*%
%ADD20R,1.302000X1.002000*%
G04 APERTURE END LIST*
D10*
X157249857Y-83585857D02*
X157368904Y-83919190D01*
X157487952Y-83585857D01*
X157654619Y-83466809D02*
X157678428Y-83443000D01*
X157726047Y-83419190D01*
X157845095Y-83419190D01*
X157892714Y-83443000D01*
X157916523Y-83466809D01*
X157940333Y-83514428D01*
X157940333Y-83562047D01*
X157916523Y-83633476D01*
X157630809Y-83919190D01*
X157940333Y-83919190D01*
D11*
X146629761Y-85383630D02*
X146629761Y-84383630D01*
X146629761Y-84764583D02*
X146725000Y-84716964D01*
X146915476Y-84716964D01*
X147010714Y-84764583D01*
X147058333Y-84812202D01*
X147105952Y-84907440D01*
X147105952Y-85193154D01*
X147058333Y-85288392D01*
X147010714Y-85336011D01*
X146915476Y-85383630D01*
X146725000Y-85383630D01*
X146629761Y-85336011D01*
X147439285Y-84716964D02*
X147677380Y-85383630D01*
X147915476Y-84716964D02*
X147677380Y-85383630D01*
X147582142Y-85621726D01*
X147534523Y-85669345D01*
X147439285Y-85716964D01*
X149629761Y-85383630D02*
X149296428Y-84907440D01*
X149058333Y-85383630D02*
X149058333Y-84383630D01*
X149439285Y-84383630D01*
X149534523Y-84431250D01*
X149582142Y-84478869D01*
X149629761Y-84574107D01*
X149629761Y-84716964D01*
X149582142Y-84812202D01*
X149534523Y-84859821D01*
X149439285Y-84907440D01*
X149058333Y-84907440D01*
X150439285Y-85336011D02*
X150344047Y-85383630D01*
X150153571Y-85383630D01*
X150058333Y-85336011D01*
X150010714Y-85240773D01*
X150010714Y-84859821D01*
X150058333Y-84764583D01*
X150153571Y-84716964D01*
X150344047Y-84716964D01*
X150439285Y-84764583D01*
X150486904Y-84859821D01*
X150486904Y-84955059D01*
X150010714Y-85050297D01*
X150915476Y-85383630D02*
X150915476Y-84716964D01*
X150915476Y-84383630D02*
X150867857Y-84431250D01*
X150915476Y-84478869D01*
X150963095Y-84431250D01*
X150915476Y-84383630D01*
X150915476Y-84478869D01*
X151820238Y-85383630D02*
X151820238Y-84383630D01*
X151820238Y-85336011D02*
X151725000Y-85383630D01*
X151534523Y-85383630D01*
X151439285Y-85336011D01*
X151391666Y-85288392D01*
X151344047Y-85193154D01*
X151344047Y-84907440D01*
X151391666Y-84812202D01*
X151439285Y-84764583D01*
X151534523Y-84716964D01*
X151725000Y-84716964D01*
X151820238Y-84764583D01*
D12*
X141582142Y-83764285D02*
X141867857Y-83907142D01*
X142439285Y-83907142D01*
X142725000Y-83764285D01*
X142867857Y-83478571D01*
X142867857Y-83335714D01*
X142725000Y-83050000D01*
X142439285Y-82907142D01*
X142010714Y-82907142D01*
X141725000Y-82764285D01*
X141582142Y-82478571D01*
X141582142Y-82335714D01*
X141725000Y-82050000D01*
X142010714Y-81907142D01*
X142439285Y-81907142D01*
X142725000Y-82050000D01*
X144153571Y-81907142D02*
X144153571Y-84907142D01*
X144153571Y-82050000D02*
X144439285Y-81907142D01*
X145010714Y-81907142D01*
X145296428Y-82050000D01*
X145439285Y-82192857D01*
X145582142Y-82478571D01*
X145582142Y-83335714D01*
X145439285Y-83621428D01*
X145296428Y-83764285D01*
X145010714Y-83907142D01*
X144439285Y-83907142D01*
X144153571Y-83764285D01*
X147296428Y-83907142D02*
X147010714Y-83764285D01*
X146867857Y-83478571D01*
X146867857Y-80907142D01*
X148439285Y-83907142D02*
X148439285Y-81907142D01*
X148439285Y-80907142D02*
X148296428Y-81050000D01*
X148439285Y-81192857D01*
X148582142Y-81050000D01*
X148439285Y-80907142D01*
X148439285Y-81192857D01*
X149439285Y-81907142D02*
X150582142Y-81907142D01*
X149867857Y-80907142D02*
X149867857Y-83478571D01*
X150010714Y-83764285D01*
X150296428Y-83907142D01*
X150582142Y-83907142D01*
X151582142Y-83907142D02*
X151582142Y-81907142D01*
X151582142Y-80907142D02*
X151439285Y-81050000D01*
X151582142Y-81192857D01*
X151725000Y-81050000D01*
X151582142Y-80907142D01*
X151582142Y-81192857D01*
X152867857Y-83764285D02*
X153153571Y-83907142D01*
X153725000Y-83907142D01*
X154010714Y-83764285D01*
X154153571Y-83478571D01*
X154153571Y-83335714D01*
X154010714Y-83050000D01*
X153725000Y-82907142D01*
X153296428Y-82907142D01*
X153010714Y-82764285D01*
X152867857Y-82478571D01*
X152867857Y-82335714D01*
X153010714Y-82050000D01*
X153296428Y-81907142D01*
X153725000Y-81907142D01*
X154010714Y-82050000D01*
X155439285Y-83907142D02*
X155439285Y-80907142D01*
X156725000Y-83907142D02*
X156725000Y-82335714D01*
X156582142Y-82050000D01*
X156296428Y-81907142D01*
X155867857Y-81907142D01*
X155582142Y-82050000D01*
X155439285Y-82192857D01*
D11*
X148899571Y-39114952D02*
X148899571Y-38781619D01*
X149423380Y-38638761D02*
X149423380Y-39114952D01*
X148423380Y-39114952D01*
X148423380Y-38638761D01*
X149423380Y-38067333D02*
X149375761Y-38162571D01*
X149280523Y-38210190D01*
X148423380Y-38210190D01*
X149375761Y-37305428D02*
X149423380Y-37400666D01*
X149423380Y-37591142D01*
X149375761Y-37686380D01*
X149280523Y-37734000D01*
X148899571Y-37734000D01*
X148804333Y-37686380D01*
X148756714Y-37591142D01*
X148756714Y-37400666D01*
X148804333Y-37305428D01*
X148899571Y-37257809D01*
X148994809Y-37257809D01*
X149090047Y-37734000D01*
X149375761Y-36400666D02*
X149423380Y-36495904D01*
X149423380Y-36686380D01*
X149375761Y-36781619D01*
X149328142Y-36829238D01*
X149232904Y-36876857D01*
X148947190Y-36876857D01*
X148851952Y-36829238D01*
X148804333Y-36781619D01*
X148756714Y-36686380D01*
X148756714Y-36495904D01*
X148804333Y-36400666D01*
X148756714Y-36114952D02*
X148756714Y-35734000D01*
X148423380Y-35972095D02*
X149280523Y-35972095D01*
X149375761Y-35924476D01*
X149423380Y-35829238D01*
X149423380Y-35734000D01*
X149423380Y-35400666D02*
X148756714Y-35400666D01*
X148947190Y-35400666D02*
X148851952Y-35353047D01*
X148804333Y-35305428D01*
X148756714Y-35210190D01*
X148756714Y-35114952D01*
X149423380Y-34638761D02*
X149375761Y-34734000D01*
X149328142Y-34781619D01*
X149232904Y-34829238D01*
X148947190Y-34829238D01*
X148851952Y-34781619D01*
X148804333Y-34734000D01*
X148756714Y-34638761D01*
X148756714Y-34495904D01*
X148804333Y-34400666D01*
X148851952Y-34353047D01*
X148947190Y-34305428D01*
X149232904Y-34305428D01*
X149328142Y-34353047D01*
X149375761Y-34400666D01*
X149423380Y-34495904D01*
X149423380Y-34638761D01*
X148756714Y-33876857D02*
X149423380Y-33876857D01*
X148851952Y-33876857D02*
X148804333Y-33829238D01*
X148756714Y-33734000D01*
X148756714Y-33591142D01*
X148804333Y-33495904D01*
X148899571Y-33448285D01*
X149423380Y-33448285D01*
X149423380Y-32972095D02*
X148756714Y-32972095D01*
X148423380Y-32972095D02*
X148471000Y-33019714D01*
X148518619Y-32972095D01*
X148471000Y-32924476D01*
X148423380Y-32972095D01*
X148518619Y-32972095D01*
X149375761Y-32067333D02*
X149423380Y-32162571D01*
X149423380Y-32353047D01*
X149375761Y-32448285D01*
X149328142Y-32495904D01*
X149232904Y-32543523D01*
X148947190Y-32543523D01*
X148851952Y-32495904D01*
X148804333Y-32448285D01*
X148756714Y-32353047D01*
X148756714Y-32162571D01*
X148804333Y-32067333D01*
X149375761Y-31686380D02*
X149423380Y-31591142D01*
X149423380Y-31400666D01*
X149375761Y-31305428D01*
X149280523Y-31257809D01*
X149232904Y-31257809D01*
X149137666Y-31305428D01*
X149090047Y-31400666D01*
X149090047Y-31543523D01*
X149042428Y-31638761D01*
X148947190Y-31686380D01*
X148899571Y-31686380D01*
X148804333Y-31638761D01*
X148756714Y-31543523D01*
X148756714Y-31400666D01*
X148804333Y-31305428D01*
X148756714Y-30210190D02*
X148756714Y-29829238D01*
X149423380Y-30067333D02*
X148566238Y-30067333D01*
X148471000Y-30019714D01*
X148423380Y-29924476D01*
X148423380Y-29829238D01*
X149423380Y-29067333D02*
X148899571Y-29067333D01*
X148804333Y-29114952D01*
X148756714Y-29210190D01*
X148756714Y-29400666D01*
X148804333Y-29495904D01*
X149375761Y-29067333D02*
X149423380Y-29162571D01*
X149423380Y-29400666D01*
X149375761Y-29495904D01*
X149280523Y-29543523D01*
X149185285Y-29543523D01*
X149090047Y-29495904D01*
X149042428Y-29400666D01*
X149042428Y-29162571D01*
X148994809Y-29067333D01*
X149375761Y-28162571D02*
X149423380Y-28257809D01*
X149423380Y-28448285D01*
X149375761Y-28543523D01*
X149328142Y-28591142D01*
X149232904Y-28638761D01*
X148947190Y-28638761D01*
X148851952Y-28591142D01*
X148804333Y-28543523D01*
X148756714Y-28448285D01*
X148756714Y-28257809D01*
X148804333Y-28162571D01*
X149375761Y-27353047D02*
X149423380Y-27448285D01*
X149423380Y-27638761D01*
X149375761Y-27734000D01*
X149280523Y-27781619D01*
X148899571Y-27781619D01*
X148804333Y-27734000D01*
X148756714Y-27638761D01*
X148756714Y-27448285D01*
X148804333Y-27353047D01*
X148899571Y-27305428D01*
X148994809Y-27305428D01*
X149090047Y-27781619D01*
X149423380Y-25686380D02*
X148423380Y-25686380D01*
X149375761Y-25686380D02*
X149423380Y-25781619D01*
X149423380Y-25972095D01*
X149375761Y-26067333D01*
X149328142Y-26114952D01*
X149232904Y-26162571D01*
X148947190Y-26162571D01*
X148851952Y-26114952D01*
X148804333Y-26067333D01*
X148756714Y-25972095D01*
X148756714Y-25781619D01*
X148804333Y-25686380D01*
X149423380Y-25067333D02*
X149375761Y-25162571D01*
X149328142Y-25210190D01*
X149232904Y-25257809D01*
X148947190Y-25257809D01*
X148851952Y-25210190D01*
X148804333Y-25162571D01*
X148756714Y-25067333D01*
X148756714Y-24924476D01*
X148804333Y-24829238D01*
X148851952Y-24781619D01*
X148947190Y-24734000D01*
X149232904Y-24734000D01*
X149328142Y-24781619D01*
X149375761Y-24829238D01*
X149423380Y-24924476D01*
X149423380Y-25067333D01*
X148756714Y-24400666D02*
X149423380Y-24210190D01*
X148947190Y-24019714D01*
X149423380Y-23829238D01*
X148756714Y-23638761D01*
X148756714Y-23257809D02*
X149423380Y-23257809D01*
X148851952Y-23257809D02*
X148804333Y-23210190D01*
X148756714Y-23114952D01*
X148756714Y-22972095D01*
X148804333Y-22876857D01*
X148899571Y-22829238D01*
X149423380Y-22829238D01*
X149328142Y-22353047D02*
X149375761Y-22305428D01*
X149423380Y-22353047D01*
X149375761Y-22400666D01*
X149328142Y-22353047D01*
X149423380Y-22353047D01*
X149042428Y-22353047D02*
X148471000Y-22400666D01*
X148423380Y-22353047D01*
X148471000Y-22305428D01*
X149042428Y-22353047D01*
X148423380Y-22353047D01*
X140144500Y-15525750D02*
X140144500Y-46005750D01*
X145224500Y-15525750D02*
X140144500Y-15525750D01*
X145224500Y-12985750D02*
X145224500Y-15525750D01*
X152844500Y-12985750D02*
X145224500Y-12985750D01*
X152844500Y-15525750D02*
X152844500Y-12985750D01*
X157924500Y-15525750D02*
X152844500Y-15525750D01*
X157924500Y-46005750D02*
X157924500Y-15525750D01*
X140144500Y-46005750D02*
X157924500Y-46005750D01*
X151571000Y-53177750D02*
X146371000Y-53177750D01*
X146371000Y-53177750D02*
X146371000Y-47977750D01*
X146371000Y-47977750D02*
X151571000Y-47977750D01*
X151571000Y-47977750D02*
X151571000Y-53177750D01*
X149971000Y-50577750D02*
G75*
G03X149971000Y-50577750I-1000000J0D01*
G01*
D13*
X262525000Y-84800000D02*
X262525000Y-80900000D01*
X264525000Y-84800000D02*
X264525000Y-80900000D01*
X262525000Y-84800000D02*
X264525000Y-84800000D01*
X262525000Y-65750000D02*
X262525000Y-61850000D01*
X264525000Y-65750000D02*
X264525000Y-61850000D01*
X262525000Y-65750000D02*
X264525000Y-65750000D01*
X262525000Y-46700000D02*
X262525000Y-42800000D01*
X264525000Y-46700000D02*
X264525000Y-42800000D01*
X262525000Y-46700000D02*
X264525000Y-46700000D01*
X262525000Y-27650000D02*
X262525000Y-23750000D01*
X264525000Y-27650000D02*
X264525000Y-23750000D01*
X262525000Y-27650000D02*
X264525000Y-27650000D01*
X243475000Y-84800000D02*
X243475000Y-80900000D01*
X245475000Y-84800000D02*
X245475000Y-80900000D01*
X243475000Y-84800000D02*
X245475000Y-84800000D01*
X243475000Y-65750000D02*
X243475000Y-61850000D01*
X245475000Y-65750000D02*
X245475000Y-61850000D01*
X243475000Y-65750000D02*
X245475000Y-65750000D01*
X243475000Y-46700000D02*
X243475000Y-42800000D01*
X245475000Y-46700000D02*
X245475000Y-42800000D01*
X243475000Y-46700000D02*
X245475000Y-46700000D01*
X243475000Y-27650000D02*
X243475000Y-23750000D01*
X245475000Y-27650000D02*
X245475000Y-23750000D01*
X243475000Y-27650000D02*
X245475000Y-27650000D01*
X224425000Y-84800000D02*
X224425000Y-80900000D01*
X226425000Y-84800000D02*
X226425000Y-80900000D01*
X224425000Y-84800000D02*
X226425000Y-84800000D01*
X224425000Y-65750000D02*
X224425000Y-61850000D01*
X226425000Y-65750000D02*
X226425000Y-61850000D01*
X224425000Y-65750000D02*
X226425000Y-65750000D01*
X224425000Y-46700000D02*
X224425000Y-42800000D01*
X226425000Y-46700000D02*
X226425000Y-42800000D01*
X224425000Y-46700000D02*
X226425000Y-46700000D01*
X224425000Y-27650000D02*
X224425000Y-23750000D01*
X226425000Y-27650000D02*
X226425000Y-23750000D01*
X224425000Y-27650000D02*
X226425000Y-27650000D01*
X205375000Y-84800000D02*
X205375000Y-80900000D01*
X207375000Y-84800000D02*
X207375000Y-80900000D01*
X205375000Y-84800000D02*
X207375000Y-84800000D01*
X205375000Y-65750000D02*
X205375000Y-61850000D01*
X207375000Y-65750000D02*
X207375000Y-61850000D01*
X205375000Y-65750000D02*
X207375000Y-65750000D01*
X205375000Y-46700000D02*
X205375000Y-42800000D01*
X207375000Y-46700000D02*
X207375000Y-42800000D01*
X205375000Y-46700000D02*
X207375000Y-46700000D01*
X205375000Y-27650000D02*
X205375000Y-23750000D01*
X207375000Y-27650000D02*
X207375000Y-23750000D01*
X205375000Y-27650000D02*
X207375000Y-27650000D01*
X186325000Y-84800000D02*
X186325000Y-80900000D01*
X188325000Y-84800000D02*
X188325000Y-80900000D01*
X186325000Y-84800000D02*
X188325000Y-84800000D01*
X186325000Y-65750000D02*
X186325000Y-61850000D01*
X188325000Y-65750000D02*
X188325000Y-61850000D01*
X186325000Y-65750000D02*
X188325000Y-65750000D01*
X186325000Y-46700000D02*
X186325000Y-42800000D01*
X188325000Y-46700000D02*
X188325000Y-42800000D01*
X186325000Y-46700000D02*
X188325000Y-46700000D01*
X186325000Y-27650000D02*
X186325000Y-23750000D01*
X188325000Y-27650000D02*
X188325000Y-23750000D01*
X186325000Y-27650000D02*
X188325000Y-27650000D01*
X167275000Y-84800000D02*
X167275000Y-80900000D01*
X169275000Y-84800000D02*
X169275000Y-80900000D01*
X167275000Y-84800000D02*
X169275000Y-84800000D01*
X167275000Y-65750000D02*
X167275000Y-61850000D01*
X169275000Y-65750000D02*
X169275000Y-61850000D01*
X167275000Y-65750000D02*
X169275000Y-65750000D01*
X167275000Y-46700000D02*
X167275000Y-42800000D01*
X169275000Y-46700000D02*
X169275000Y-42800000D01*
X167275000Y-46700000D02*
X169275000Y-46700000D01*
X167275000Y-27650000D02*
X167275000Y-23750000D01*
X169275000Y-27650000D02*
X169275000Y-23750000D01*
X167275000Y-27650000D02*
X169275000Y-27650000D01*
X129175000Y-84800000D02*
X129175000Y-80900000D01*
X131175000Y-84800000D02*
X131175000Y-80900000D01*
X129175000Y-84800000D02*
X131175000Y-84800000D01*
X129175000Y-65750000D02*
X129175000Y-61850000D01*
X131175000Y-65750000D02*
X131175000Y-61850000D01*
X129175000Y-65750000D02*
X131175000Y-65750000D01*
X129175000Y-46700000D02*
X129175000Y-42800000D01*
X131175000Y-46700000D02*
X131175000Y-42800000D01*
X129175000Y-46700000D02*
X131175000Y-46700000D01*
X129175000Y-27650000D02*
X129175000Y-23750000D01*
X131175000Y-27650000D02*
X131175000Y-23750000D01*
X129175000Y-27650000D02*
X131175000Y-27650000D01*
X110125000Y-84800000D02*
X110125000Y-80900000D01*
X112125000Y-84800000D02*
X112125000Y-80900000D01*
X110125000Y-84800000D02*
X112125000Y-84800000D01*
X110125000Y-65750000D02*
X110125000Y-61850000D01*
X112125000Y-65750000D02*
X112125000Y-61850000D01*
X110125000Y-65750000D02*
X112125000Y-65750000D01*
X110125000Y-46700000D02*
X110125000Y-42800000D01*
X112125000Y-46700000D02*
X112125000Y-42800000D01*
X110125000Y-46700000D02*
X112125000Y-46700000D01*
X110125000Y-27650000D02*
X110125000Y-23750000D01*
X112125000Y-27650000D02*
X112125000Y-23750000D01*
X110125000Y-27650000D02*
X112125000Y-27650000D01*
X91075000Y-84800000D02*
X91075000Y-80900000D01*
X93075000Y-84800000D02*
X93075000Y-80900000D01*
X91075000Y-84800000D02*
X93075000Y-84800000D01*
X91075000Y-65750000D02*
X91075000Y-61850000D01*
X93075000Y-65750000D02*
X93075000Y-61850000D01*
X91075000Y-65750000D02*
X93075000Y-65750000D01*
X91075000Y-46700000D02*
X91075000Y-42800000D01*
X93075000Y-46700000D02*
X93075000Y-42800000D01*
X91075000Y-46700000D02*
X93075000Y-46700000D01*
X91075000Y-27650000D02*
X91075000Y-23750000D01*
X93075000Y-27650000D02*
X93075000Y-23750000D01*
X91075000Y-27650000D02*
X93075000Y-27650000D01*
X72025000Y-84800000D02*
X72025000Y-80900000D01*
X74025000Y-84800000D02*
X74025000Y-80900000D01*
X72025000Y-84800000D02*
X74025000Y-84800000D01*
X72025000Y-65750000D02*
X72025000Y-61850000D01*
X74025000Y-65750000D02*
X74025000Y-61850000D01*
X72025000Y-65750000D02*
X74025000Y-65750000D01*
X72025000Y-46700000D02*
X72025000Y-42800000D01*
X74025000Y-46700000D02*
X74025000Y-42800000D01*
X72025000Y-46700000D02*
X74025000Y-46700000D01*
X72025000Y-27650000D02*
X72025000Y-23750000D01*
X74025000Y-27650000D02*
X74025000Y-23750000D01*
X72025000Y-27650000D02*
X74025000Y-27650000D01*
X52975000Y-84800000D02*
X52975000Y-80900000D01*
X54975000Y-84800000D02*
X54975000Y-80900000D01*
X52975000Y-84800000D02*
X54975000Y-84800000D01*
X52975000Y-65750000D02*
X52975000Y-61850000D01*
X54975000Y-65750000D02*
X54975000Y-61850000D01*
X52975000Y-65750000D02*
X54975000Y-65750000D01*
X52975000Y-46700000D02*
X52975000Y-42800000D01*
X54975000Y-46700000D02*
X54975000Y-42800000D01*
X52975000Y-46700000D02*
X54975000Y-46700000D01*
X52975000Y-27650000D02*
X52975000Y-23750000D01*
X54975000Y-27650000D02*
X54975000Y-23750000D01*
X52975000Y-27650000D02*
X54975000Y-27650000D01*
X33925000Y-84800000D02*
X33925000Y-80900000D01*
X35925000Y-84800000D02*
X35925000Y-80900000D01*
X33925000Y-84800000D02*
X35925000Y-84800000D01*
X33925000Y-65750000D02*
X33925000Y-61850000D01*
X35925000Y-65750000D02*
X35925000Y-61850000D01*
X33925000Y-65750000D02*
X35925000Y-65750000D01*
X33925000Y-46700000D02*
X33925000Y-42800000D01*
X35925000Y-46700000D02*
X35925000Y-42800000D01*
X33925000Y-46700000D02*
X35925000Y-46700000D01*
X33925000Y-27650000D02*
X33925000Y-23750000D01*
X35925000Y-27650000D02*
X35925000Y-23750000D01*
X33925000Y-27650000D02*
X35925000Y-27650000D01*
D11*
X147518619Y-54427380D02*
X147185285Y-53951190D01*
X146947190Y-54427380D02*
X146947190Y-53427380D01*
X147328142Y-53427380D01*
X147423380Y-53475000D01*
X147471000Y-53522619D01*
X147518619Y-53617857D01*
X147518619Y-53760714D01*
X147471000Y-53855952D01*
X147423380Y-53903571D01*
X147328142Y-53951190D01*
X146947190Y-53951190D01*
X147947190Y-53903571D02*
X148280523Y-53903571D01*
X148423380Y-54427380D02*
X147947190Y-54427380D01*
X147947190Y-53427380D01*
X148423380Y-53427380D01*
X148804333Y-54379761D02*
X148947190Y-54427380D01*
X149185285Y-54427380D01*
X149280523Y-54379761D01*
X149328142Y-54332142D01*
X149375761Y-54236904D01*
X149375761Y-54141666D01*
X149328142Y-54046428D01*
X149280523Y-53998809D01*
X149185285Y-53951190D01*
X148994809Y-53903571D01*
X148899571Y-53855952D01*
X148851952Y-53808333D01*
X148804333Y-53713095D01*
X148804333Y-53617857D01*
X148851952Y-53522619D01*
X148899571Y-53475000D01*
X148994809Y-53427380D01*
X149232904Y-53427380D01*
X149375761Y-53475000D01*
X149804333Y-53903571D02*
X150137666Y-53903571D01*
X150280523Y-54427380D02*
X149804333Y-54427380D01*
X149804333Y-53427380D01*
X150280523Y-53427380D01*
X150566238Y-53427380D02*
X151137666Y-53427380D01*
X150851952Y-54427380D02*
X150851952Y-53427380D01*
X261977380Y-83764285D02*
X260977380Y-83764285D01*
X260977380Y-83526190D01*
X261025000Y-83383333D01*
X261120238Y-83288095D01*
X261215476Y-83240476D01*
X261405952Y-83192857D01*
X261548809Y-83192857D01*
X261739285Y-83240476D01*
X261834523Y-83288095D01*
X261929761Y-83383333D01*
X261977380Y-83526190D01*
X261977380Y-83764285D01*
X261310714Y-82335714D02*
X261977380Y-82335714D01*
X260929761Y-82573809D02*
X261644047Y-82811904D01*
X261644047Y-82192857D01*
X261405952Y-81669047D02*
X261358333Y-81764285D01*
X261310714Y-81811904D01*
X261215476Y-81859523D01*
X261167857Y-81859523D01*
X261072619Y-81811904D01*
X261025000Y-81764285D01*
X260977380Y-81669047D01*
X260977380Y-81478571D01*
X261025000Y-81383333D01*
X261072619Y-81335714D01*
X261167857Y-81288095D01*
X261215476Y-81288095D01*
X261310714Y-81335714D01*
X261358333Y-81383333D01*
X261405952Y-81478571D01*
X261405952Y-81669047D01*
X261453571Y-81764285D01*
X261501190Y-81811904D01*
X261596428Y-81859523D01*
X261786904Y-81859523D01*
X261882142Y-81811904D01*
X261929761Y-81764285D01*
X261977380Y-81669047D01*
X261977380Y-81478571D01*
X261929761Y-81383333D01*
X261882142Y-81335714D01*
X261786904Y-81288095D01*
X261596428Y-81288095D01*
X261501190Y-81335714D01*
X261453571Y-81383333D01*
X261405952Y-81478571D01*
X261977380Y-64714285D02*
X260977380Y-64714285D01*
X260977380Y-64476190D01*
X261025000Y-64333333D01*
X261120238Y-64238095D01*
X261215476Y-64190476D01*
X261405952Y-64142857D01*
X261548809Y-64142857D01*
X261739285Y-64190476D01*
X261834523Y-64238095D01*
X261929761Y-64333333D01*
X261977380Y-64476190D01*
X261977380Y-64714285D01*
X261310714Y-63285714D02*
X261977380Y-63285714D01*
X260929761Y-63523809D02*
X261644047Y-63761904D01*
X261644047Y-63142857D01*
X260977380Y-62857142D02*
X260977380Y-62190476D01*
X261977380Y-62619047D01*
X261977380Y-45664285D02*
X260977380Y-45664285D01*
X260977380Y-45426190D01*
X261025000Y-45283333D01*
X261120238Y-45188095D01*
X261215476Y-45140476D01*
X261405952Y-45092857D01*
X261548809Y-45092857D01*
X261739285Y-45140476D01*
X261834523Y-45188095D01*
X261929761Y-45283333D01*
X261977380Y-45426190D01*
X261977380Y-45664285D01*
X261310714Y-44235714D02*
X261977380Y-44235714D01*
X260929761Y-44473809D02*
X261644047Y-44711904D01*
X261644047Y-44092857D01*
X260977380Y-43283333D02*
X260977380Y-43473809D01*
X261025000Y-43569047D01*
X261072619Y-43616666D01*
X261215476Y-43711904D01*
X261405952Y-43759523D01*
X261786904Y-43759523D01*
X261882142Y-43711904D01*
X261929761Y-43664285D01*
X261977380Y-43569047D01*
X261977380Y-43378571D01*
X261929761Y-43283333D01*
X261882142Y-43235714D01*
X261786904Y-43188095D01*
X261548809Y-43188095D01*
X261453571Y-43235714D01*
X261405952Y-43283333D01*
X261358333Y-43378571D01*
X261358333Y-43569047D01*
X261405952Y-43664285D01*
X261453571Y-43711904D01*
X261548809Y-43759523D01*
X261977380Y-26614285D02*
X260977380Y-26614285D01*
X260977380Y-26376190D01*
X261025000Y-26233333D01*
X261120238Y-26138095D01*
X261215476Y-26090476D01*
X261405952Y-26042857D01*
X261548809Y-26042857D01*
X261739285Y-26090476D01*
X261834523Y-26138095D01*
X261929761Y-26233333D01*
X261977380Y-26376190D01*
X261977380Y-26614285D01*
X261310714Y-25185714D02*
X261977380Y-25185714D01*
X260929761Y-25423809D02*
X261644047Y-25661904D01*
X261644047Y-25042857D01*
X260977380Y-24185714D02*
X260977380Y-24661904D01*
X261453571Y-24709523D01*
X261405952Y-24661904D01*
X261358333Y-24566666D01*
X261358333Y-24328571D01*
X261405952Y-24233333D01*
X261453571Y-24185714D01*
X261548809Y-24138095D01*
X261786904Y-24138095D01*
X261882142Y-24185714D01*
X261929761Y-24233333D01*
X261977380Y-24328571D01*
X261977380Y-24566666D01*
X261929761Y-24661904D01*
X261882142Y-24709523D01*
X242927380Y-83764285D02*
X241927380Y-83764285D01*
X241927380Y-83526190D01*
X241975000Y-83383333D01*
X242070238Y-83288095D01*
X242165476Y-83240476D01*
X242355952Y-83192857D01*
X242498809Y-83192857D01*
X242689285Y-83240476D01*
X242784523Y-83288095D01*
X242879761Y-83383333D01*
X242927380Y-83526190D01*
X242927380Y-83764285D01*
X242260714Y-82335714D02*
X242927380Y-82335714D01*
X241879761Y-82573809D02*
X242594047Y-82811904D01*
X242594047Y-82192857D01*
X242260714Y-81383333D02*
X242927380Y-81383333D01*
X241879761Y-81621428D02*
X242594047Y-81859523D01*
X242594047Y-81240476D01*
X242927380Y-64714285D02*
X241927380Y-64714285D01*
X241927380Y-64476190D01*
X241975000Y-64333333D01*
X242070238Y-64238095D01*
X242165476Y-64190476D01*
X242355952Y-64142857D01*
X242498809Y-64142857D01*
X242689285Y-64190476D01*
X242784523Y-64238095D01*
X242879761Y-64333333D01*
X242927380Y-64476190D01*
X242927380Y-64714285D01*
X242260714Y-63285714D02*
X242927380Y-63285714D01*
X241879761Y-63523809D02*
X242594047Y-63761904D01*
X242594047Y-63142857D01*
X241927380Y-62857142D02*
X241927380Y-62238095D01*
X242308333Y-62571428D01*
X242308333Y-62428571D01*
X242355952Y-62333333D01*
X242403571Y-62285714D01*
X242498809Y-62238095D01*
X242736904Y-62238095D01*
X242832142Y-62285714D01*
X242879761Y-62333333D01*
X242927380Y-62428571D01*
X242927380Y-62714285D01*
X242879761Y-62809523D01*
X242832142Y-62857142D01*
X242927380Y-45664285D02*
X241927380Y-45664285D01*
X241927380Y-45426190D01*
X241975000Y-45283333D01*
X242070238Y-45188095D01*
X242165476Y-45140476D01*
X242355952Y-45092857D01*
X242498809Y-45092857D01*
X242689285Y-45140476D01*
X242784523Y-45188095D01*
X242879761Y-45283333D01*
X242927380Y-45426190D01*
X242927380Y-45664285D01*
X242260714Y-44235714D02*
X242927380Y-44235714D01*
X241879761Y-44473809D02*
X242594047Y-44711904D01*
X242594047Y-44092857D01*
X242022619Y-43759523D02*
X241975000Y-43711904D01*
X241927380Y-43616666D01*
X241927380Y-43378571D01*
X241975000Y-43283333D01*
X242022619Y-43235714D01*
X242117857Y-43188095D01*
X242213095Y-43188095D01*
X242355952Y-43235714D01*
X242927380Y-43807142D01*
X242927380Y-43188095D01*
X242927380Y-26614285D02*
X241927380Y-26614285D01*
X241927380Y-26376190D01*
X241975000Y-26233333D01*
X242070238Y-26138095D01*
X242165476Y-26090476D01*
X242355952Y-26042857D01*
X242498809Y-26042857D01*
X242689285Y-26090476D01*
X242784523Y-26138095D01*
X242879761Y-26233333D01*
X242927380Y-26376190D01*
X242927380Y-26614285D01*
X242260714Y-25185714D02*
X242927380Y-25185714D01*
X241879761Y-25423809D02*
X242594047Y-25661904D01*
X242594047Y-25042857D01*
X242927380Y-24138095D02*
X242927380Y-24709523D01*
X242927380Y-24423809D02*
X241927380Y-24423809D01*
X242070238Y-24519047D01*
X242165476Y-24614285D01*
X242213095Y-24709523D01*
X223877380Y-83764285D02*
X222877380Y-83764285D01*
X222877380Y-83526190D01*
X222925000Y-83383333D01*
X223020238Y-83288095D01*
X223115476Y-83240476D01*
X223305952Y-83192857D01*
X223448809Y-83192857D01*
X223639285Y-83240476D01*
X223734523Y-83288095D01*
X223829761Y-83383333D01*
X223877380Y-83526190D01*
X223877380Y-83764285D01*
X223210714Y-82335714D02*
X223877380Y-82335714D01*
X222829761Y-82573809D02*
X223544047Y-82811904D01*
X223544047Y-82192857D01*
X222877380Y-81621428D02*
X222877380Y-81526190D01*
X222925000Y-81430952D01*
X222972619Y-81383333D01*
X223067857Y-81335714D01*
X223258333Y-81288095D01*
X223496428Y-81288095D01*
X223686904Y-81335714D01*
X223782142Y-81383333D01*
X223829761Y-81430952D01*
X223877380Y-81526190D01*
X223877380Y-81621428D01*
X223829761Y-81716666D01*
X223782142Y-81764285D01*
X223686904Y-81811904D01*
X223496428Y-81859523D01*
X223258333Y-81859523D01*
X223067857Y-81811904D01*
X222972619Y-81764285D01*
X222925000Y-81716666D01*
X222877380Y-81621428D01*
X223877380Y-64714285D02*
X222877380Y-64714285D01*
X222877380Y-64476190D01*
X222925000Y-64333333D01*
X223020238Y-64238095D01*
X223115476Y-64190476D01*
X223305952Y-64142857D01*
X223448809Y-64142857D01*
X223639285Y-64190476D01*
X223734523Y-64238095D01*
X223829761Y-64333333D01*
X223877380Y-64476190D01*
X223877380Y-64714285D01*
X222877380Y-63809523D02*
X222877380Y-63190476D01*
X223258333Y-63523809D01*
X223258333Y-63380952D01*
X223305952Y-63285714D01*
X223353571Y-63238095D01*
X223448809Y-63190476D01*
X223686904Y-63190476D01*
X223782142Y-63238095D01*
X223829761Y-63285714D01*
X223877380Y-63380952D01*
X223877380Y-63666666D01*
X223829761Y-63761904D01*
X223782142Y-63809523D01*
X223877380Y-62714285D02*
X223877380Y-62523809D01*
X223829761Y-62428571D01*
X223782142Y-62380952D01*
X223639285Y-62285714D01*
X223448809Y-62238095D01*
X223067857Y-62238095D01*
X222972619Y-62285714D01*
X222925000Y-62333333D01*
X222877380Y-62428571D01*
X222877380Y-62619047D01*
X222925000Y-62714285D01*
X222972619Y-62761904D01*
X223067857Y-62809523D01*
X223305952Y-62809523D01*
X223401190Y-62761904D01*
X223448809Y-62714285D01*
X223496428Y-62619047D01*
X223496428Y-62428571D01*
X223448809Y-62333333D01*
X223401190Y-62285714D01*
X223305952Y-62238095D01*
X223877380Y-45664285D02*
X222877380Y-45664285D01*
X222877380Y-45426190D01*
X222925000Y-45283333D01*
X223020238Y-45188095D01*
X223115476Y-45140476D01*
X223305952Y-45092857D01*
X223448809Y-45092857D01*
X223639285Y-45140476D01*
X223734523Y-45188095D01*
X223829761Y-45283333D01*
X223877380Y-45426190D01*
X223877380Y-45664285D01*
X222877380Y-44759523D02*
X222877380Y-44140476D01*
X223258333Y-44473809D01*
X223258333Y-44330952D01*
X223305952Y-44235714D01*
X223353571Y-44188095D01*
X223448809Y-44140476D01*
X223686904Y-44140476D01*
X223782142Y-44188095D01*
X223829761Y-44235714D01*
X223877380Y-44330952D01*
X223877380Y-44616666D01*
X223829761Y-44711904D01*
X223782142Y-44759523D01*
X223305952Y-43569047D02*
X223258333Y-43664285D01*
X223210714Y-43711904D01*
X223115476Y-43759523D01*
X223067857Y-43759523D01*
X222972619Y-43711904D01*
X222925000Y-43664285D01*
X222877380Y-43569047D01*
X222877380Y-43378571D01*
X222925000Y-43283333D01*
X222972619Y-43235714D01*
X223067857Y-43188095D01*
X223115476Y-43188095D01*
X223210714Y-43235714D01*
X223258333Y-43283333D01*
X223305952Y-43378571D01*
X223305952Y-43569047D01*
X223353571Y-43664285D01*
X223401190Y-43711904D01*
X223496428Y-43759523D01*
X223686904Y-43759523D01*
X223782142Y-43711904D01*
X223829761Y-43664285D01*
X223877380Y-43569047D01*
X223877380Y-43378571D01*
X223829761Y-43283333D01*
X223782142Y-43235714D01*
X223686904Y-43188095D01*
X223496428Y-43188095D01*
X223401190Y-43235714D01*
X223353571Y-43283333D01*
X223305952Y-43378571D01*
X223877380Y-26614285D02*
X222877380Y-26614285D01*
X222877380Y-26376190D01*
X222925000Y-26233333D01*
X223020238Y-26138095D01*
X223115476Y-26090476D01*
X223305952Y-26042857D01*
X223448809Y-26042857D01*
X223639285Y-26090476D01*
X223734523Y-26138095D01*
X223829761Y-26233333D01*
X223877380Y-26376190D01*
X223877380Y-26614285D01*
X222877380Y-25709523D02*
X222877380Y-25090476D01*
X223258333Y-25423809D01*
X223258333Y-25280952D01*
X223305952Y-25185714D01*
X223353571Y-25138095D01*
X223448809Y-25090476D01*
X223686904Y-25090476D01*
X223782142Y-25138095D01*
X223829761Y-25185714D01*
X223877380Y-25280952D01*
X223877380Y-25566666D01*
X223829761Y-25661904D01*
X223782142Y-25709523D01*
X222877380Y-24757142D02*
X222877380Y-24090476D01*
X223877380Y-24519047D01*
X204827380Y-83764285D02*
X203827380Y-83764285D01*
X203827380Y-83526190D01*
X203875000Y-83383333D01*
X203970238Y-83288095D01*
X204065476Y-83240476D01*
X204255952Y-83192857D01*
X204398809Y-83192857D01*
X204589285Y-83240476D01*
X204684523Y-83288095D01*
X204779761Y-83383333D01*
X204827380Y-83526190D01*
X204827380Y-83764285D01*
X203827380Y-82859523D02*
X203827380Y-82240476D01*
X204208333Y-82573809D01*
X204208333Y-82430952D01*
X204255952Y-82335714D01*
X204303571Y-82288095D01*
X204398809Y-82240476D01*
X204636904Y-82240476D01*
X204732142Y-82288095D01*
X204779761Y-82335714D01*
X204827380Y-82430952D01*
X204827380Y-82716666D01*
X204779761Y-82811904D01*
X204732142Y-82859523D01*
X203827380Y-81383333D02*
X203827380Y-81573809D01*
X203875000Y-81669047D01*
X203922619Y-81716666D01*
X204065476Y-81811904D01*
X204255952Y-81859523D01*
X204636904Y-81859523D01*
X204732142Y-81811904D01*
X204779761Y-81764285D01*
X204827380Y-81669047D01*
X204827380Y-81478571D01*
X204779761Y-81383333D01*
X204732142Y-81335714D01*
X204636904Y-81288095D01*
X204398809Y-81288095D01*
X204303571Y-81335714D01*
X204255952Y-81383333D01*
X204208333Y-81478571D01*
X204208333Y-81669047D01*
X204255952Y-81764285D01*
X204303571Y-81811904D01*
X204398809Y-81859523D01*
X204827380Y-64714285D02*
X203827380Y-64714285D01*
X203827380Y-64476190D01*
X203875000Y-64333333D01*
X203970238Y-64238095D01*
X204065476Y-64190476D01*
X204255952Y-64142857D01*
X204398809Y-64142857D01*
X204589285Y-64190476D01*
X204684523Y-64238095D01*
X204779761Y-64333333D01*
X204827380Y-64476190D01*
X204827380Y-64714285D01*
X203827380Y-63809523D02*
X203827380Y-63190476D01*
X204208333Y-63523809D01*
X204208333Y-63380952D01*
X204255952Y-63285714D01*
X204303571Y-63238095D01*
X204398809Y-63190476D01*
X204636904Y-63190476D01*
X204732142Y-63238095D01*
X204779761Y-63285714D01*
X204827380Y-63380952D01*
X204827380Y-63666666D01*
X204779761Y-63761904D01*
X204732142Y-63809523D01*
X203827380Y-62285714D02*
X203827380Y-62761904D01*
X204303571Y-62809523D01*
X204255952Y-62761904D01*
X204208333Y-62666666D01*
X204208333Y-62428571D01*
X204255952Y-62333333D01*
X204303571Y-62285714D01*
X204398809Y-62238095D01*
X204636904Y-62238095D01*
X204732142Y-62285714D01*
X204779761Y-62333333D01*
X204827380Y-62428571D01*
X204827380Y-62666666D01*
X204779761Y-62761904D01*
X204732142Y-62809523D01*
X204827380Y-45664285D02*
X203827380Y-45664285D01*
X203827380Y-45426190D01*
X203875000Y-45283333D01*
X203970238Y-45188095D01*
X204065476Y-45140476D01*
X204255952Y-45092857D01*
X204398809Y-45092857D01*
X204589285Y-45140476D01*
X204684523Y-45188095D01*
X204779761Y-45283333D01*
X204827380Y-45426190D01*
X204827380Y-45664285D01*
X203827380Y-44759523D02*
X203827380Y-44140476D01*
X204208333Y-44473809D01*
X204208333Y-44330952D01*
X204255952Y-44235714D01*
X204303571Y-44188095D01*
X204398809Y-44140476D01*
X204636904Y-44140476D01*
X204732142Y-44188095D01*
X204779761Y-44235714D01*
X204827380Y-44330952D01*
X204827380Y-44616666D01*
X204779761Y-44711904D01*
X204732142Y-44759523D01*
X204160714Y-43283333D02*
X204827380Y-43283333D01*
X203779761Y-43521428D02*
X204494047Y-43759523D01*
X204494047Y-43140476D01*
X204827380Y-26614285D02*
X203827380Y-26614285D01*
X203827380Y-26376190D01*
X203875000Y-26233333D01*
X203970238Y-26138095D01*
X204065476Y-26090476D01*
X204255952Y-26042857D01*
X204398809Y-26042857D01*
X204589285Y-26090476D01*
X204684523Y-26138095D01*
X204779761Y-26233333D01*
X204827380Y-26376190D01*
X204827380Y-26614285D01*
X203827380Y-25709523D02*
X203827380Y-25090476D01*
X204208333Y-25423809D01*
X204208333Y-25280952D01*
X204255952Y-25185714D01*
X204303571Y-25138095D01*
X204398809Y-25090476D01*
X204636904Y-25090476D01*
X204732142Y-25138095D01*
X204779761Y-25185714D01*
X204827380Y-25280952D01*
X204827380Y-25566666D01*
X204779761Y-25661904D01*
X204732142Y-25709523D01*
X203827380Y-24757142D02*
X203827380Y-24138095D01*
X204208333Y-24471428D01*
X204208333Y-24328571D01*
X204255952Y-24233333D01*
X204303571Y-24185714D01*
X204398809Y-24138095D01*
X204636904Y-24138095D01*
X204732142Y-24185714D01*
X204779761Y-24233333D01*
X204827380Y-24328571D01*
X204827380Y-24614285D01*
X204779761Y-24709523D01*
X204732142Y-24757142D01*
X185777380Y-83764285D02*
X184777380Y-83764285D01*
X184777380Y-83526190D01*
X184825000Y-83383333D01*
X184920238Y-83288095D01*
X185015476Y-83240476D01*
X185205952Y-83192857D01*
X185348809Y-83192857D01*
X185539285Y-83240476D01*
X185634523Y-83288095D01*
X185729761Y-83383333D01*
X185777380Y-83526190D01*
X185777380Y-83764285D01*
X184777380Y-82859523D02*
X184777380Y-82240476D01*
X185158333Y-82573809D01*
X185158333Y-82430952D01*
X185205952Y-82335714D01*
X185253571Y-82288095D01*
X185348809Y-82240476D01*
X185586904Y-82240476D01*
X185682142Y-82288095D01*
X185729761Y-82335714D01*
X185777380Y-82430952D01*
X185777380Y-82716666D01*
X185729761Y-82811904D01*
X185682142Y-82859523D01*
X184872619Y-81859523D02*
X184825000Y-81811904D01*
X184777380Y-81716666D01*
X184777380Y-81478571D01*
X184825000Y-81383333D01*
X184872619Y-81335714D01*
X184967857Y-81288095D01*
X185063095Y-81288095D01*
X185205952Y-81335714D01*
X185777380Y-81907142D01*
X185777380Y-81288095D01*
X185777380Y-64714285D02*
X184777380Y-64714285D01*
X184777380Y-64476190D01*
X184825000Y-64333333D01*
X184920238Y-64238095D01*
X185015476Y-64190476D01*
X185205952Y-64142857D01*
X185348809Y-64142857D01*
X185539285Y-64190476D01*
X185634523Y-64238095D01*
X185729761Y-64333333D01*
X185777380Y-64476190D01*
X185777380Y-64714285D01*
X184777380Y-63809523D02*
X184777380Y-63190476D01*
X185158333Y-63523809D01*
X185158333Y-63380952D01*
X185205952Y-63285714D01*
X185253571Y-63238095D01*
X185348809Y-63190476D01*
X185586904Y-63190476D01*
X185682142Y-63238095D01*
X185729761Y-63285714D01*
X185777380Y-63380952D01*
X185777380Y-63666666D01*
X185729761Y-63761904D01*
X185682142Y-63809523D01*
X185777380Y-62238095D02*
X185777380Y-62809523D01*
X185777380Y-62523809D02*
X184777380Y-62523809D01*
X184920238Y-62619047D01*
X185015476Y-62714285D01*
X185063095Y-62809523D01*
X185777380Y-45664285D02*
X184777380Y-45664285D01*
X184777380Y-45426190D01*
X184825000Y-45283333D01*
X184920238Y-45188095D01*
X185015476Y-45140476D01*
X185205952Y-45092857D01*
X185348809Y-45092857D01*
X185539285Y-45140476D01*
X185634523Y-45188095D01*
X185729761Y-45283333D01*
X185777380Y-45426190D01*
X185777380Y-45664285D01*
X184777380Y-44759523D02*
X184777380Y-44140476D01*
X185158333Y-44473809D01*
X185158333Y-44330952D01*
X185205952Y-44235714D01*
X185253571Y-44188095D01*
X185348809Y-44140476D01*
X185586904Y-44140476D01*
X185682142Y-44188095D01*
X185729761Y-44235714D01*
X185777380Y-44330952D01*
X185777380Y-44616666D01*
X185729761Y-44711904D01*
X185682142Y-44759523D01*
X184777380Y-43521428D02*
X184777380Y-43426190D01*
X184825000Y-43330952D01*
X184872619Y-43283333D01*
X184967857Y-43235714D01*
X185158333Y-43188095D01*
X185396428Y-43188095D01*
X185586904Y-43235714D01*
X185682142Y-43283333D01*
X185729761Y-43330952D01*
X185777380Y-43426190D01*
X185777380Y-43521428D01*
X185729761Y-43616666D01*
X185682142Y-43664285D01*
X185586904Y-43711904D01*
X185396428Y-43759523D01*
X185158333Y-43759523D01*
X184967857Y-43711904D01*
X184872619Y-43664285D01*
X184825000Y-43616666D01*
X184777380Y-43521428D01*
X185777380Y-26614285D02*
X184777380Y-26614285D01*
X184777380Y-26376190D01*
X184825000Y-26233333D01*
X184920238Y-26138095D01*
X185015476Y-26090476D01*
X185205952Y-26042857D01*
X185348809Y-26042857D01*
X185539285Y-26090476D01*
X185634523Y-26138095D01*
X185729761Y-26233333D01*
X185777380Y-26376190D01*
X185777380Y-26614285D01*
X184872619Y-25661904D02*
X184825000Y-25614285D01*
X184777380Y-25519047D01*
X184777380Y-25280952D01*
X184825000Y-25185714D01*
X184872619Y-25138095D01*
X184967857Y-25090476D01*
X185063095Y-25090476D01*
X185205952Y-25138095D01*
X185777380Y-25709523D01*
X185777380Y-25090476D01*
X185777380Y-24614285D02*
X185777380Y-24423809D01*
X185729761Y-24328571D01*
X185682142Y-24280952D01*
X185539285Y-24185714D01*
X185348809Y-24138095D01*
X184967857Y-24138095D01*
X184872619Y-24185714D01*
X184825000Y-24233333D01*
X184777380Y-24328571D01*
X184777380Y-24519047D01*
X184825000Y-24614285D01*
X184872619Y-24661904D01*
X184967857Y-24709523D01*
X185205952Y-24709523D01*
X185301190Y-24661904D01*
X185348809Y-24614285D01*
X185396428Y-24519047D01*
X185396428Y-24328571D01*
X185348809Y-24233333D01*
X185301190Y-24185714D01*
X185205952Y-24138095D01*
X166727380Y-83764285D02*
X165727380Y-83764285D01*
X165727380Y-83526190D01*
X165775000Y-83383333D01*
X165870238Y-83288095D01*
X165965476Y-83240476D01*
X166155952Y-83192857D01*
X166298809Y-83192857D01*
X166489285Y-83240476D01*
X166584523Y-83288095D01*
X166679761Y-83383333D01*
X166727380Y-83526190D01*
X166727380Y-83764285D01*
X165822619Y-82811904D02*
X165775000Y-82764285D01*
X165727380Y-82669047D01*
X165727380Y-82430952D01*
X165775000Y-82335714D01*
X165822619Y-82288095D01*
X165917857Y-82240476D01*
X166013095Y-82240476D01*
X166155952Y-82288095D01*
X166727380Y-82859523D01*
X166727380Y-82240476D01*
X166155952Y-81669047D02*
X166108333Y-81764285D01*
X166060714Y-81811904D01*
X165965476Y-81859523D01*
X165917857Y-81859523D01*
X165822619Y-81811904D01*
X165775000Y-81764285D01*
X165727380Y-81669047D01*
X165727380Y-81478571D01*
X165775000Y-81383333D01*
X165822619Y-81335714D01*
X165917857Y-81288095D01*
X165965476Y-81288095D01*
X166060714Y-81335714D01*
X166108333Y-81383333D01*
X166155952Y-81478571D01*
X166155952Y-81669047D01*
X166203571Y-81764285D01*
X166251190Y-81811904D01*
X166346428Y-81859523D01*
X166536904Y-81859523D01*
X166632142Y-81811904D01*
X166679761Y-81764285D01*
X166727380Y-81669047D01*
X166727380Y-81478571D01*
X166679761Y-81383333D01*
X166632142Y-81335714D01*
X166536904Y-81288095D01*
X166346428Y-81288095D01*
X166251190Y-81335714D01*
X166203571Y-81383333D01*
X166155952Y-81478571D01*
X166727380Y-64714285D02*
X165727380Y-64714285D01*
X165727380Y-64476190D01*
X165775000Y-64333333D01*
X165870238Y-64238095D01*
X165965476Y-64190476D01*
X166155952Y-64142857D01*
X166298809Y-64142857D01*
X166489285Y-64190476D01*
X166584523Y-64238095D01*
X166679761Y-64333333D01*
X166727380Y-64476190D01*
X166727380Y-64714285D01*
X165822619Y-63761904D02*
X165775000Y-63714285D01*
X165727380Y-63619047D01*
X165727380Y-63380952D01*
X165775000Y-63285714D01*
X165822619Y-63238095D01*
X165917857Y-63190476D01*
X166013095Y-63190476D01*
X166155952Y-63238095D01*
X166727380Y-63809523D01*
X166727380Y-63190476D01*
X165727380Y-62857142D02*
X165727380Y-62190476D01*
X166727380Y-62619047D01*
X166727380Y-45664285D02*
X165727380Y-45664285D01*
X165727380Y-45426190D01*
X165775000Y-45283333D01*
X165870238Y-45188095D01*
X165965476Y-45140476D01*
X166155952Y-45092857D01*
X166298809Y-45092857D01*
X166489285Y-45140476D01*
X166584523Y-45188095D01*
X166679761Y-45283333D01*
X166727380Y-45426190D01*
X166727380Y-45664285D01*
X165822619Y-44711904D02*
X165775000Y-44664285D01*
X165727380Y-44569047D01*
X165727380Y-44330952D01*
X165775000Y-44235714D01*
X165822619Y-44188095D01*
X165917857Y-44140476D01*
X166013095Y-44140476D01*
X166155952Y-44188095D01*
X166727380Y-44759523D01*
X166727380Y-44140476D01*
X165727380Y-43283333D02*
X165727380Y-43473809D01*
X165775000Y-43569047D01*
X165822619Y-43616666D01*
X165965476Y-43711904D01*
X166155952Y-43759523D01*
X166536904Y-43759523D01*
X166632142Y-43711904D01*
X166679761Y-43664285D01*
X166727380Y-43569047D01*
X166727380Y-43378571D01*
X166679761Y-43283333D01*
X166632142Y-43235714D01*
X166536904Y-43188095D01*
X166298809Y-43188095D01*
X166203571Y-43235714D01*
X166155952Y-43283333D01*
X166108333Y-43378571D01*
X166108333Y-43569047D01*
X166155952Y-43664285D01*
X166203571Y-43711904D01*
X166298809Y-43759523D01*
X166727380Y-26614285D02*
X165727380Y-26614285D01*
X165727380Y-26376190D01*
X165775000Y-26233333D01*
X165870238Y-26138095D01*
X165965476Y-26090476D01*
X166155952Y-26042857D01*
X166298809Y-26042857D01*
X166489285Y-26090476D01*
X166584523Y-26138095D01*
X166679761Y-26233333D01*
X166727380Y-26376190D01*
X166727380Y-26614285D01*
X165822619Y-25661904D02*
X165775000Y-25614285D01*
X165727380Y-25519047D01*
X165727380Y-25280952D01*
X165775000Y-25185714D01*
X165822619Y-25138095D01*
X165917857Y-25090476D01*
X166013095Y-25090476D01*
X166155952Y-25138095D01*
X166727380Y-25709523D01*
X166727380Y-25090476D01*
X165727380Y-24185714D02*
X165727380Y-24661904D01*
X166203571Y-24709523D01*
X166155952Y-24661904D01*
X166108333Y-24566666D01*
X166108333Y-24328571D01*
X166155952Y-24233333D01*
X166203571Y-24185714D01*
X166298809Y-24138095D01*
X166536904Y-24138095D01*
X166632142Y-24185714D01*
X166679761Y-24233333D01*
X166727380Y-24328571D01*
X166727380Y-24566666D01*
X166679761Y-24661904D01*
X166632142Y-24709523D01*
X128627380Y-83764285D02*
X127627380Y-83764285D01*
X127627380Y-83526190D01*
X127675000Y-83383333D01*
X127770238Y-83288095D01*
X127865476Y-83240476D01*
X128055952Y-83192857D01*
X128198809Y-83192857D01*
X128389285Y-83240476D01*
X128484523Y-83288095D01*
X128579761Y-83383333D01*
X128627380Y-83526190D01*
X128627380Y-83764285D01*
X127722619Y-82811904D02*
X127675000Y-82764285D01*
X127627380Y-82669047D01*
X127627380Y-82430952D01*
X127675000Y-82335714D01*
X127722619Y-82288095D01*
X127817857Y-82240476D01*
X127913095Y-82240476D01*
X128055952Y-82288095D01*
X128627380Y-82859523D01*
X128627380Y-82240476D01*
X127960714Y-81383333D02*
X128627380Y-81383333D01*
X127579761Y-81621428D02*
X128294047Y-81859523D01*
X128294047Y-81240476D01*
X128627380Y-64714285D02*
X127627380Y-64714285D01*
X127627380Y-64476190D01*
X127675000Y-64333333D01*
X127770238Y-64238095D01*
X127865476Y-64190476D01*
X128055952Y-64142857D01*
X128198809Y-64142857D01*
X128389285Y-64190476D01*
X128484523Y-64238095D01*
X128579761Y-64333333D01*
X128627380Y-64476190D01*
X128627380Y-64714285D01*
X127722619Y-63761904D02*
X127675000Y-63714285D01*
X127627380Y-63619047D01*
X127627380Y-63380952D01*
X127675000Y-63285714D01*
X127722619Y-63238095D01*
X127817857Y-63190476D01*
X127913095Y-63190476D01*
X128055952Y-63238095D01*
X128627380Y-63809523D01*
X128627380Y-63190476D01*
X127627380Y-62857142D02*
X127627380Y-62238095D01*
X128008333Y-62571428D01*
X128008333Y-62428571D01*
X128055952Y-62333333D01*
X128103571Y-62285714D01*
X128198809Y-62238095D01*
X128436904Y-62238095D01*
X128532142Y-62285714D01*
X128579761Y-62333333D01*
X128627380Y-62428571D01*
X128627380Y-62714285D01*
X128579761Y-62809523D01*
X128532142Y-62857142D01*
X128627380Y-45664285D02*
X127627380Y-45664285D01*
X127627380Y-45426190D01*
X127675000Y-45283333D01*
X127770238Y-45188095D01*
X127865476Y-45140476D01*
X128055952Y-45092857D01*
X128198809Y-45092857D01*
X128389285Y-45140476D01*
X128484523Y-45188095D01*
X128579761Y-45283333D01*
X128627380Y-45426190D01*
X128627380Y-45664285D01*
X127722619Y-44711904D02*
X127675000Y-44664285D01*
X127627380Y-44569047D01*
X127627380Y-44330952D01*
X127675000Y-44235714D01*
X127722619Y-44188095D01*
X127817857Y-44140476D01*
X127913095Y-44140476D01*
X128055952Y-44188095D01*
X128627380Y-44759523D01*
X128627380Y-44140476D01*
X127722619Y-43759523D02*
X127675000Y-43711904D01*
X127627380Y-43616666D01*
X127627380Y-43378571D01*
X127675000Y-43283333D01*
X127722619Y-43235714D01*
X127817857Y-43188095D01*
X127913095Y-43188095D01*
X128055952Y-43235714D01*
X128627380Y-43807142D01*
X128627380Y-43188095D01*
X128627380Y-26614285D02*
X127627380Y-26614285D01*
X127627380Y-26376190D01*
X127675000Y-26233333D01*
X127770238Y-26138095D01*
X127865476Y-26090476D01*
X128055952Y-26042857D01*
X128198809Y-26042857D01*
X128389285Y-26090476D01*
X128484523Y-26138095D01*
X128579761Y-26233333D01*
X128627380Y-26376190D01*
X128627380Y-26614285D01*
X127722619Y-25661904D02*
X127675000Y-25614285D01*
X127627380Y-25519047D01*
X127627380Y-25280952D01*
X127675000Y-25185714D01*
X127722619Y-25138095D01*
X127817857Y-25090476D01*
X127913095Y-25090476D01*
X128055952Y-25138095D01*
X128627380Y-25709523D01*
X128627380Y-25090476D01*
X128627380Y-24138095D02*
X128627380Y-24709523D01*
X128627380Y-24423809D02*
X127627380Y-24423809D01*
X127770238Y-24519047D01*
X127865476Y-24614285D01*
X127913095Y-24709523D01*
X109577380Y-83764285D02*
X108577380Y-83764285D01*
X108577380Y-83526190D01*
X108625000Y-83383333D01*
X108720238Y-83288095D01*
X108815476Y-83240476D01*
X109005952Y-83192857D01*
X109148809Y-83192857D01*
X109339285Y-83240476D01*
X109434523Y-83288095D01*
X109529761Y-83383333D01*
X109577380Y-83526190D01*
X109577380Y-83764285D01*
X108672619Y-82811904D02*
X108625000Y-82764285D01*
X108577380Y-82669047D01*
X108577380Y-82430952D01*
X108625000Y-82335714D01*
X108672619Y-82288095D01*
X108767857Y-82240476D01*
X108863095Y-82240476D01*
X109005952Y-82288095D01*
X109577380Y-82859523D01*
X109577380Y-82240476D01*
X108577380Y-81621428D02*
X108577380Y-81526190D01*
X108625000Y-81430952D01*
X108672619Y-81383333D01*
X108767857Y-81335714D01*
X108958333Y-81288095D01*
X109196428Y-81288095D01*
X109386904Y-81335714D01*
X109482142Y-81383333D01*
X109529761Y-81430952D01*
X109577380Y-81526190D01*
X109577380Y-81621428D01*
X109529761Y-81716666D01*
X109482142Y-81764285D01*
X109386904Y-81811904D01*
X109196428Y-81859523D01*
X108958333Y-81859523D01*
X108767857Y-81811904D01*
X108672619Y-81764285D01*
X108625000Y-81716666D01*
X108577380Y-81621428D01*
X109577380Y-64714285D02*
X108577380Y-64714285D01*
X108577380Y-64476190D01*
X108625000Y-64333333D01*
X108720238Y-64238095D01*
X108815476Y-64190476D01*
X109005952Y-64142857D01*
X109148809Y-64142857D01*
X109339285Y-64190476D01*
X109434523Y-64238095D01*
X109529761Y-64333333D01*
X109577380Y-64476190D01*
X109577380Y-64714285D01*
X109577380Y-63190476D02*
X109577380Y-63761904D01*
X109577380Y-63476190D02*
X108577380Y-63476190D01*
X108720238Y-63571428D01*
X108815476Y-63666666D01*
X108863095Y-63761904D01*
X109577380Y-62714285D02*
X109577380Y-62523809D01*
X109529761Y-62428571D01*
X109482142Y-62380952D01*
X109339285Y-62285714D01*
X109148809Y-62238095D01*
X108767857Y-62238095D01*
X108672619Y-62285714D01*
X108625000Y-62333333D01*
X108577380Y-62428571D01*
X108577380Y-62619047D01*
X108625000Y-62714285D01*
X108672619Y-62761904D01*
X108767857Y-62809523D01*
X109005952Y-62809523D01*
X109101190Y-62761904D01*
X109148809Y-62714285D01*
X109196428Y-62619047D01*
X109196428Y-62428571D01*
X109148809Y-62333333D01*
X109101190Y-62285714D01*
X109005952Y-62238095D01*
X109577380Y-45664285D02*
X108577380Y-45664285D01*
X108577380Y-45426190D01*
X108625000Y-45283333D01*
X108720238Y-45188095D01*
X108815476Y-45140476D01*
X109005952Y-45092857D01*
X109148809Y-45092857D01*
X109339285Y-45140476D01*
X109434523Y-45188095D01*
X109529761Y-45283333D01*
X109577380Y-45426190D01*
X109577380Y-45664285D01*
X109577380Y-44140476D02*
X109577380Y-44711904D01*
X109577380Y-44426190D02*
X108577380Y-44426190D01*
X108720238Y-44521428D01*
X108815476Y-44616666D01*
X108863095Y-44711904D01*
X109005952Y-43569047D02*
X108958333Y-43664285D01*
X108910714Y-43711904D01*
X108815476Y-43759523D01*
X108767857Y-43759523D01*
X108672619Y-43711904D01*
X108625000Y-43664285D01*
X108577380Y-43569047D01*
X108577380Y-43378571D01*
X108625000Y-43283333D01*
X108672619Y-43235714D01*
X108767857Y-43188095D01*
X108815476Y-43188095D01*
X108910714Y-43235714D01*
X108958333Y-43283333D01*
X109005952Y-43378571D01*
X109005952Y-43569047D01*
X109053571Y-43664285D01*
X109101190Y-43711904D01*
X109196428Y-43759523D01*
X109386904Y-43759523D01*
X109482142Y-43711904D01*
X109529761Y-43664285D01*
X109577380Y-43569047D01*
X109577380Y-43378571D01*
X109529761Y-43283333D01*
X109482142Y-43235714D01*
X109386904Y-43188095D01*
X109196428Y-43188095D01*
X109101190Y-43235714D01*
X109053571Y-43283333D01*
X109005952Y-43378571D01*
X109577380Y-26614285D02*
X108577380Y-26614285D01*
X108577380Y-26376190D01*
X108625000Y-26233333D01*
X108720238Y-26138095D01*
X108815476Y-26090476D01*
X109005952Y-26042857D01*
X109148809Y-26042857D01*
X109339285Y-26090476D01*
X109434523Y-26138095D01*
X109529761Y-26233333D01*
X109577380Y-26376190D01*
X109577380Y-26614285D01*
X109577380Y-25090476D02*
X109577380Y-25661904D01*
X109577380Y-25376190D02*
X108577380Y-25376190D01*
X108720238Y-25471428D01*
X108815476Y-25566666D01*
X108863095Y-25661904D01*
X108577380Y-24757142D02*
X108577380Y-24090476D01*
X109577380Y-24519047D01*
X90527380Y-83764285D02*
X89527380Y-83764285D01*
X89527380Y-83526190D01*
X89575000Y-83383333D01*
X89670238Y-83288095D01*
X89765476Y-83240476D01*
X89955952Y-83192857D01*
X90098809Y-83192857D01*
X90289285Y-83240476D01*
X90384523Y-83288095D01*
X90479761Y-83383333D01*
X90527380Y-83526190D01*
X90527380Y-83764285D01*
X90527380Y-82240476D02*
X90527380Y-82811904D01*
X90527380Y-82526190D02*
X89527380Y-82526190D01*
X89670238Y-82621428D01*
X89765476Y-82716666D01*
X89813095Y-82811904D01*
X89527380Y-81383333D02*
X89527380Y-81573809D01*
X89575000Y-81669047D01*
X89622619Y-81716666D01*
X89765476Y-81811904D01*
X89955952Y-81859523D01*
X90336904Y-81859523D01*
X90432142Y-81811904D01*
X90479761Y-81764285D01*
X90527380Y-81669047D01*
X90527380Y-81478571D01*
X90479761Y-81383333D01*
X90432142Y-81335714D01*
X90336904Y-81288095D01*
X90098809Y-81288095D01*
X90003571Y-81335714D01*
X89955952Y-81383333D01*
X89908333Y-81478571D01*
X89908333Y-81669047D01*
X89955952Y-81764285D01*
X90003571Y-81811904D01*
X90098809Y-81859523D01*
X90527380Y-64714285D02*
X89527380Y-64714285D01*
X89527380Y-64476190D01*
X89575000Y-64333333D01*
X89670238Y-64238095D01*
X89765476Y-64190476D01*
X89955952Y-64142857D01*
X90098809Y-64142857D01*
X90289285Y-64190476D01*
X90384523Y-64238095D01*
X90479761Y-64333333D01*
X90527380Y-64476190D01*
X90527380Y-64714285D01*
X90527380Y-63190476D02*
X90527380Y-63761904D01*
X90527380Y-63476190D02*
X89527380Y-63476190D01*
X89670238Y-63571428D01*
X89765476Y-63666666D01*
X89813095Y-63761904D01*
X89527380Y-62285714D02*
X89527380Y-62761904D01*
X90003571Y-62809523D01*
X89955952Y-62761904D01*
X89908333Y-62666666D01*
X89908333Y-62428571D01*
X89955952Y-62333333D01*
X90003571Y-62285714D01*
X90098809Y-62238095D01*
X90336904Y-62238095D01*
X90432142Y-62285714D01*
X90479761Y-62333333D01*
X90527380Y-62428571D01*
X90527380Y-62666666D01*
X90479761Y-62761904D01*
X90432142Y-62809523D01*
X90527380Y-45664285D02*
X89527380Y-45664285D01*
X89527380Y-45426190D01*
X89575000Y-45283333D01*
X89670238Y-45188095D01*
X89765476Y-45140476D01*
X89955952Y-45092857D01*
X90098809Y-45092857D01*
X90289285Y-45140476D01*
X90384523Y-45188095D01*
X90479761Y-45283333D01*
X90527380Y-45426190D01*
X90527380Y-45664285D01*
X90527380Y-44140476D02*
X90527380Y-44711904D01*
X90527380Y-44426190D02*
X89527380Y-44426190D01*
X89670238Y-44521428D01*
X89765476Y-44616666D01*
X89813095Y-44711904D01*
X89860714Y-43283333D02*
X90527380Y-43283333D01*
X89479761Y-43521428D02*
X90194047Y-43759523D01*
X90194047Y-43140476D01*
X90527380Y-26614285D02*
X89527380Y-26614285D01*
X89527380Y-26376190D01*
X89575000Y-26233333D01*
X89670238Y-26138095D01*
X89765476Y-26090476D01*
X89955952Y-26042857D01*
X90098809Y-26042857D01*
X90289285Y-26090476D01*
X90384523Y-26138095D01*
X90479761Y-26233333D01*
X90527380Y-26376190D01*
X90527380Y-26614285D01*
X90527380Y-25090476D02*
X90527380Y-25661904D01*
X90527380Y-25376190D02*
X89527380Y-25376190D01*
X89670238Y-25471428D01*
X89765476Y-25566666D01*
X89813095Y-25661904D01*
X89527380Y-24757142D02*
X89527380Y-24138095D01*
X89908333Y-24471428D01*
X89908333Y-24328571D01*
X89955952Y-24233333D01*
X90003571Y-24185714D01*
X90098809Y-24138095D01*
X90336904Y-24138095D01*
X90432142Y-24185714D01*
X90479761Y-24233333D01*
X90527380Y-24328571D01*
X90527380Y-24614285D01*
X90479761Y-24709523D01*
X90432142Y-24757142D01*
X71477380Y-83764285D02*
X70477380Y-83764285D01*
X70477380Y-83526190D01*
X70525000Y-83383333D01*
X70620238Y-83288095D01*
X70715476Y-83240476D01*
X70905952Y-83192857D01*
X71048809Y-83192857D01*
X71239285Y-83240476D01*
X71334523Y-83288095D01*
X71429761Y-83383333D01*
X71477380Y-83526190D01*
X71477380Y-83764285D01*
X71477380Y-82240476D02*
X71477380Y-82811904D01*
X71477380Y-82526190D02*
X70477380Y-82526190D01*
X70620238Y-82621428D01*
X70715476Y-82716666D01*
X70763095Y-82811904D01*
X70572619Y-81859523D02*
X70525000Y-81811904D01*
X70477380Y-81716666D01*
X70477380Y-81478571D01*
X70525000Y-81383333D01*
X70572619Y-81335714D01*
X70667857Y-81288095D01*
X70763095Y-81288095D01*
X70905952Y-81335714D01*
X71477380Y-81907142D01*
X71477380Y-81288095D01*
X71477380Y-64714285D02*
X70477380Y-64714285D01*
X70477380Y-64476190D01*
X70525000Y-64333333D01*
X70620238Y-64238095D01*
X70715476Y-64190476D01*
X70905952Y-64142857D01*
X71048809Y-64142857D01*
X71239285Y-64190476D01*
X71334523Y-64238095D01*
X71429761Y-64333333D01*
X71477380Y-64476190D01*
X71477380Y-64714285D01*
X71477380Y-63190476D02*
X71477380Y-63761904D01*
X71477380Y-63476190D02*
X70477380Y-63476190D01*
X70620238Y-63571428D01*
X70715476Y-63666666D01*
X70763095Y-63761904D01*
X71477380Y-62238095D02*
X71477380Y-62809523D01*
X71477380Y-62523809D02*
X70477380Y-62523809D01*
X70620238Y-62619047D01*
X70715476Y-62714285D01*
X70763095Y-62809523D01*
X71477380Y-45664285D02*
X70477380Y-45664285D01*
X70477380Y-45426190D01*
X70525000Y-45283333D01*
X70620238Y-45188095D01*
X70715476Y-45140476D01*
X70905952Y-45092857D01*
X71048809Y-45092857D01*
X71239285Y-45140476D01*
X71334523Y-45188095D01*
X71429761Y-45283333D01*
X71477380Y-45426190D01*
X71477380Y-45664285D01*
X71477380Y-44140476D02*
X71477380Y-44711904D01*
X71477380Y-44426190D02*
X70477380Y-44426190D01*
X70620238Y-44521428D01*
X70715476Y-44616666D01*
X70763095Y-44711904D01*
X70477380Y-43521428D02*
X70477380Y-43426190D01*
X70525000Y-43330952D01*
X70572619Y-43283333D01*
X70667857Y-43235714D01*
X70858333Y-43188095D01*
X71096428Y-43188095D01*
X71286904Y-43235714D01*
X71382142Y-43283333D01*
X71429761Y-43330952D01*
X71477380Y-43426190D01*
X71477380Y-43521428D01*
X71429761Y-43616666D01*
X71382142Y-43664285D01*
X71286904Y-43711904D01*
X71096428Y-43759523D01*
X70858333Y-43759523D01*
X70667857Y-43711904D01*
X70572619Y-43664285D01*
X70525000Y-43616666D01*
X70477380Y-43521428D01*
X71477380Y-26138095D02*
X70477380Y-26138095D01*
X70477380Y-25900000D01*
X70525000Y-25757142D01*
X70620238Y-25661904D01*
X70715476Y-25614285D01*
X70905952Y-25566666D01*
X71048809Y-25566666D01*
X71239285Y-25614285D01*
X71334523Y-25661904D01*
X71429761Y-25757142D01*
X71477380Y-25900000D01*
X71477380Y-26138095D01*
X71477380Y-25090476D02*
X71477380Y-24900000D01*
X71429761Y-24804761D01*
X71382142Y-24757142D01*
X71239285Y-24661904D01*
X71048809Y-24614285D01*
X70667857Y-24614285D01*
X70572619Y-24661904D01*
X70525000Y-24709523D01*
X70477380Y-24804761D01*
X70477380Y-24995238D01*
X70525000Y-25090476D01*
X70572619Y-25138095D01*
X70667857Y-25185714D01*
X70905952Y-25185714D01*
X71001190Y-25138095D01*
X71048809Y-25090476D01*
X71096428Y-24995238D01*
X71096428Y-24804761D01*
X71048809Y-24709523D01*
X71001190Y-24661904D01*
X70905952Y-24614285D01*
X52427380Y-83288095D02*
X51427380Y-83288095D01*
X51427380Y-83050000D01*
X51475000Y-82907142D01*
X51570238Y-82811904D01*
X51665476Y-82764285D01*
X51855952Y-82716666D01*
X51998809Y-82716666D01*
X52189285Y-82764285D01*
X52284523Y-82811904D01*
X52379761Y-82907142D01*
X52427380Y-83050000D01*
X52427380Y-83288095D01*
X51855952Y-82145238D02*
X51808333Y-82240476D01*
X51760714Y-82288095D01*
X51665476Y-82335714D01*
X51617857Y-82335714D01*
X51522619Y-82288095D01*
X51475000Y-82240476D01*
X51427380Y-82145238D01*
X51427380Y-81954761D01*
X51475000Y-81859523D01*
X51522619Y-81811904D01*
X51617857Y-81764285D01*
X51665476Y-81764285D01*
X51760714Y-81811904D01*
X51808333Y-81859523D01*
X51855952Y-81954761D01*
X51855952Y-82145238D01*
X51903571Y-82240476D01*
X51951190Y-82288095D01*
X52046428Y-82335714D01*
X52236904Y-82335714D01*
X52332142Y-82288095D01*
X52379761Y-82240476D01*
X52427380Y-82145238D01*
X52427380Y-81954761D01*
X52379761Y-81859523D01*
X52332142Y-81811904D01*
X52236904Y-81764285D01*
X52046428Y-81764285D01*
X51951190Y-81811904D01*
X51903571Y-81859523D01*
X51855952Y-81954761D01*
X52427380Y-64238095D02*
X51427380Y-64238095D01*
X51427380Y-64000000D01*
X51475000Y-63857142D01*
X51570238Y-63761904D01*
X51665476Y-63714285D01*
X51855952Y-63666666D01*
X51998809Y-63666666D01*
X52189285Y-63714285D01*
X52284523Y-63761904D01*
X52379761Y-63857142D01*
X52427380Y-64000000D01*
X52427380Y-64238095D01*
X51427380Y-63333333D02*
X51427380Y-62666666D01*
X52427380Y-63095238D01*
X52427380Y-45188095D02*
X51427380Y-45188095D01*
X51427380Y-44950000D01*
X51475000Y-44807142D01*
X51570238Y-44711904D01*
X51665476Y-44664285D01*
X51855952Y-44616666D01*
X51998809Y-44616666D01*
X52189285Y-44664285D01*
X52284523Y-44711904D01*
X52379761Y-44807142D01*
X52427380Y-44950000D01*
X52427380Y-45188095D01*
X51427380Y-43759523D02*
X51427380Y-43950000D01*
X51475000Y-44045238D01*
X51522619Y-44092857D01*
X51665476Y-44188095D01*
X51855952Y-44235714D01*
X52236904Y-44235714D01*
X52332142Y-44188095D01*
X52379761Y-44140476D01*
X52427380Y-44045238D01*
X52427380Y-43854761D01*
X52379761Y-43759523D01*
X52332142Y-43711904D01*
X52236904Y-43664285D01*
X51998809Y-43664285D01*
X51903571Y-43711904D01*
X51855952Y-43759523D01*
X51808333Y-43854761D01*
X51808333Y-44045238D01*
X51855952Y-44140476D01*
X51903571Y-44188095D01*
X51998809Y-44235714D01*
X52427380Y-26138095D02*
X51427380Y-26138095D01*
X51427380Y-25900000D01*
X51475000Y-25757142D01*
X51570238Y-25661904D01*
X51665476Y-25614285D01*
X51855952Y-25566666D01*
X51998809Y-25566666D01*
X52189285Y-25614285D01*
X52284523Y-25661904D01*
X52379761Y-25757142D01*
X52427380Y-25900000D01*
X52427380Y-26138095D01*
X51427380Y-24661904D02*
X51427380Y-25138095D01*
X51903571Y-25185714D01*
X51855952Y-25138095D01*
X51808333Y-25042857D01*
X51808333Y-24804761D01*
X51855952Y-24709523D01*
X51903571Y-24661904D01*
X51998809Y-24614285D01*
X52236904Y-24614285D01*
X52332142Y-24661904D01*
X52379761Y-24709523D01*
X52427380Y-24804761D01*
X52427380Y-25042857D01*
X52379761Y-25138095D01*
X52332142Y-25185714D01*
X33377380Y-83288095D02*
X32377380Y-83288095D01*
X32377380Y-83050000D01*
X32425000Y-82907142D01*
X32520238Y-82811904D01*
X32615476Y-82764285D01*
X32805952Y-82716666D01*
X32948809Y-82716666D01*
X33139285Y-82764285D01*
X33234523Y-82811904D01*
X33329761Y-82907142D01*
X33377380Y-83050000D01*
X33377380Y-83288095D01*
X32710714Y-81859523D02*
X33377380Y-81859523D01*
X32329761Y-82097619D02*
X33044047Y-82335714D01*
X33044047Y-81716666D01*
X33377380Y-64238095D02*
X32377380Y-64238095D01*
X32377380Y-64000000D01*
X32425000Y-63857142D01*
X32520238Y-63761904D01*
X32615476Y-63714285D01*
X32805952Y-63666666D01*
X32948809Y-63666666D01*
X33139285Y-63714285D01*
X33234523Y-63761904D01*
X33329761Y-63857142D01*
X33377380Y-64000000D01*
X33377380Y-64238095D01*
X32377380Y-63333333D02*
X32377380Y-62714285D01*
X32758333Y-63047619D01*
X32758333Y-62904761D01*
X32805952Y-62809523D01*
X32853571Y-62761904D01*
X32948809Y-62714285D01*
X33186904Y-62714285D01*
X33282142Y-62761904D01*
X33329761Y-62809523D01*
X33377380Y-62904761D01*
X33377380Y-63190476D01*
X33329761Y-63285714D01*
X33282142Y-63333333D01*
X32472619Y-43711904D02*
X33472619Y-43711904D01*
X33472619Y-43950000D01*
X33425000Y-44092857D01*
X33329761Y-44188095D01*
X33234523Y-44235714D01*
X33044047Y-44283333D01*
X32901190Y-44283333D01*
X32710714Y-44235714D01*
X32615476Y-44188095D01*
X32520238Y-44092857D01*
X32472619Y-43950000D01*
X32472619Y-43711904D01*
X33377380Y-44664285D02*
X33425000Y-44711904D01*
X33472619Y-44807142D01*
X33472619Y-45045238D01*
X33425000Y-45140476D01*
X33377380Y-45188095D01*
X33282142Y-45235714D01*
X33186904Y-45235714D01*
X33044047Y-45188095D01*
X32472619Y-44616666D01*
X32472619Y-45235714D01*
X33377380Y-26138095D02*
X32377380Y-26138095D01*
X32377380Y-25900000D01*
X32425000Y-25757142D01*
X32520238Y-25661904D01*
X32615476Y-25614285D01*
X32805952Y-25566666D01*
X32948809Y-25566666D01*
X33139285Y-25614285D01*
X33234523Y-25661904D01*
X33329761Y-25757142D01*
X33377380Y-25900000D01*
X33377380Y-26138095D01*
X33377380Y-24614285D02*
X33377380Y-25185714D01*
X33377380Y-24900000D02*
X32377380Y-24900000D01*
X32520238Y-24995238D01*
X32615476Y-25090476D01*
X32663095Y-25185714D01*
%LPC*%
D14*
X39230000Y-29600000D03*
D15*
X49950000Y-25400000D03*
X38950000Y-25400000D03*
D16*
X44450000Y-25400000D03*
D14*
X20180000Y-29600000D03*
D15*
X30900000Y-25400000D03*
X19900000Y-25400000D03*
D16*
X25400000Y-25400000D03*
D14*
X115430000Y-29600000D03*
D15*
X126150000Y-25400000D03*
X115150000Y-25400000D03*
D16*
X120650000Y-25400000D03*
D14*
X267830000Y-86750000D03*
D15*
X278550000Y-82550000D03*
X267550000Y-82550000D03*
D16*
X273050000Y-82550000D03*
D14*
X267830000Y-67700000D03*
D15*
X278550000Y-63500000D03*
X267550000Y-63500000D03*
D16*
X273050000Y-63500000D03*
D14*
X267830000Y-48650000D03*
D15*
X278550000Y-44450000D03*
X267550000Y-44450000D03*
D16*
X273050000Y-44450000D03*
D14*
X267830000Y-29600000D03*
D15*
X278550000Y-25400000D03*
X267550000Y-25400000D03*
D16*
X273050000Y-25400000D03*
D14*
X248780000Y-86750000D03*
D15*
X259500000Y-82550000D03*
X248500000Y-82550000D03*
D16*
X254000000Y-82550000D03*
D14*
X248780000Y-67700000D03*
D15*
X259500000Y-63500000D03*
X248500000Y-63500000D03*
D16*
X254000000Y-63500000D03*
D14*
X248780000Y-48650000D03*
D15*
X259500000Y-44450000D03*
X248500000Y-44450000D03*
D16*
X254000000Y-44450000D03*
D14*
X248780000Y-29600000D03*
D15*
X259500000Y-25400000D03*
X248500000Y-25400000D03*
D16*
X254000000Y-25400000D03*
D14*
X229730000Y-86750000D03*
D15*
X240450000Y-82550000D03*
X229450000Y-82550000D03*
D16*
X234950000Y-82550000D03*
D14*
X229730000Y-67700000D03*
D15*
X240450000Y-63500000D03*
X229450000Y-63500000D03*
D16*
X234950000Y-63500000D03*
D14*
X229730000Y-48650000D03*
D15*
X240450000Y-44450000D03*
X229450000Y-44450000D03*
D16*
X234950000Y-44450000D03*
D14*
X229730000Y-29600000D03*
D15*
X240450000Y-25400000D03*
X229450000Y-25400000D03*
D16*
X234950000Y-25400000D03*
D14*
X210680000Y-86750000D03*
D15*
X221400000Y-82550000D03*
X210400000Y-82550000D03*
D16*
X215900000Y-82550000D03*
D14*
X210680000Y-67700000D03*
D15*
X221400000Y-63500000D03*
X210400000Y-63500000D03*
D16*
X215900000Y-63500000D03*
D14*
X210680000Y-48650000D03*
D15*
X221400000Y-44450000D03*
X210400000Y-44450000D03*
D16*
X215900000Y-44450000D03*
D14*
X210680000Y-29600000D03*
D15*
X221400000Y-25400000D03*
X210400000Y-25400000D03*
D16*
X215900000Y-25400000D03*
D14*
X191630000Y-86750000D03*
D15*
X202350000Y-82550000D03*
X191350000Y-82550000D03*
D16*
X196850000Y-82550000D03*
D14*
X191630000Y-67700000D03*
D15*
X202350000Y-63500000D03*
X191350000Y-63500000D03*
D16*
X196850000Y-63500000D03*
D14*
X191630000Y-48650000D03*
D15*
X202350000Y-44450000D03*
X191350000Y-44450000D03*
D16*
X196850000Y-44450000D03*
D14*
X191630000Y-29600000D03*
D15*
X202350000Y-25400000D03*
X191350000Y-25400000D03*
D16*
X196850000Y-25400000D03*
D14*
X172580000Y-86750000D03*
D15*
X183300000Y-82550000D03*
X172300000Y-82550000D03*
D16*
X177800000Y-82550000D03*
D14*
X172580000Y-67700000D03*
D15*
X183300000Y-63500000D03*
X172300000Y-63500000D03*
D16*
X177800000Y-63500000D03*
D14*
X172580000Y-48650000D03*
D15*
X183300000Y-44450000D03*
X172300000Y-44450000D03*
D16*
X177800000Y-44450000D03*
D14*
X172580000Y-29600000D03*
D15*
X183300000Y-25400000D03*
X172300000Y-25400000D03*
D16*
X177800000Y-25400000D03*
D14*
X115430000Y-86750000D03*
D15*
X126150000Y-82550000D03*
X115150000Y-82550000D03*
D16*
X120650000Y-82550000D03*
D14*
X115430000Y-67700000D03*
D15*
X126150000Y-63500000D03*
X115150000Y-63500000D03*
D16*
X120650000Y-63500000D03*
D14*
X115430000Y-48650000D03*
D15*
X126150000Y-44450000D03*
X115150000Y-44450000D03*
D16*
X120650000Y-44450000D03*
D14*
X96380000Y-86750000D03*
D15*
X107100000Y-82550000D03*
X96100000Y-82550000D03*
D16*
X101600000Y-82550000D03*
D14*
X96380000Y-67700000D03*
D15*
X107100000Y-63500000D03*
X96100000Y-63500000D03*
D16*
X101600000Y-63500000D03*
D14*
X96380000Y-48650000D03*
D15*
X107100000Y-44450000D03*
X96100000Y-44450000D03*
D16*
X101600000Y-44450000D03*
D14*
X96380000Y-29600000D03*
D15*
X107100000Y-25400000D03*
X96100000Y-25400000D03*
D16*
X101600000Y-25400000D03*
D14*
X77330000Y-86750000D03*
D15*
X88050000Y-82550000D03*
X77050000Y-82550000D03*
D16*
X82550000Y-82550000D03*
D14*
X77330000Y-67700000D03*
D15*
X88050000Y-63500000D03*
X77050000Y-63500000D03*
D16*
X82550000Y-63500000D03*
D14*
X77330000Y-48650000D03*
D15*
X88050000Y-44450000D03*
X77050000Y-44450000D03*
D16*
X82550000Y-44450000D03*
D14*
X77330000Y-29600000D03*
D15*
X88050000Y-25400000D03*
X77050000Y-25400000D03*
D16*
X82550000Y-25400000D03*
D14*
X58280000Y-86750000D03*
D15*
X69000000Y-82550000D03*
X58000000Y-82550000D03*
D16*
X63500000Y-82550000D03*
D14*
X58280000Y-67700000D03*
D15*
X69000000Y-63500000D03*
X58000000Y-63500000D03*
D16*
X63500000Y-63500000D03*
D14*
X58280000Y-48650000D03*
D15*
X69000000Y-44450000D03*
X58000000Y-44450000D03*
D16*
X63500000Y-44450000D03*
D14*
X58280000Y-29600000D03*
D15*
X69000000Y-25400000D03*
X58000000Y-25400000D03*
D16*
X63500000Y-25400000D03*
D14*
X39230000Y-86750000D03*
D15*
X49950000Y-82550000D03*
X38950000Y-82550000D03*
D16*
X44450000Y-82550000D03*
D14*
X39230000Y-67700000D03*
D15*
X49950000Y-63500000D03*
X38950000Y-63500000D03*
D16*
X44450000Y-63500000D03*
D14*
X39230000Y-48650000D03*
D15*
X49950000Y-44450000D03*
X38950000Y-44450000D03*
D16*
X44450000Y-44450000D03*
D14*
X20180000Y-86750000D03*
D15*
X30900000Y-82550000D03*
X19900000Y-82550000D03*
D16*
X25400000Y-82550000D03*
D14*
X20180000Y-67700000D03*
D15*
X30900000Y-63500000D03*
X19900000Y-63500000D03*
D16*
X25400000Y-63500000D03*
D14*
X20180000Y-48650000D03*
D15*
X30900000Y-44450000D03*
X19900000Y-44450000D03*
D16*
X25400000Y-44450000D03*
D17*
X141414500Y-16795750D03*
X141414500Y-19335750D03*
X141414500Y-21875750D03*
X141414500Y-24415750D03*
X141414500Y-26955750D03*
X141414500Y-29495750D03*
X141414500Y-32035750D03*
X141414500Y-34575750D03*
X141414500Y-37115750D03*
X141414500Y-39655750D03*
X141414500Y-42195750D03*
X141414500Y-44735750D03*
X156654500Y-44735750D03*
X156654500Y-42195750D03*
X156654500Y-39655750D03*
X156654500Y-37115750D03*
X156654500Y-34575750D03*
X156654500Y-32035750D03*
X156654500Y-29495750D03*
X156654500Y-26955750D03*
X156654500Y-24415750D03*
X156654500Y-21875750D03*
X156654500Y-19335750D03*
D18*
X156654500Y-16795750D03*
D19*
X152071000Y-48727750D03*
X145871000Y-52427750D03*
X152071000Y-52427750D03*
X145871000Y-48727750D03*
D20*
X263525000Y-80900000D03*
X263525000Y-84200000D03*
X263525000Y-61850000D03*
X263525000Y-65150000D03*
X263525000Y-42800000D03*
X263525000Y-46100000D03*
X263525000Y-23750000D03*
X263525000Y-27050000D03*
X244475000Y-80900000D03*
X244475000Y-84200000D03*
X244475000Y-61850000D03*
X244475000Y-65150000D03*
X244475000Y-42800000D03*
X244475000Y-46100000D03*
X244475000Y-23750000D03*
X244475000Y-27050000D03*
X225425000Y-80900000D03*
X225425000Y-84200000D03*
X225425000Y-61850000D03*
X225425000Y-65150000D03*
X225425000Y-42800000D03*
X225425000Y-46100000D03*
X225425000Y-23750000D03*
X225425000Y-27050000D03*
X206375000Y-80900000D03*
X206375000Y-84200000D03*
X206375000Y-61850000D03*
X206375000Y-65150000D03*
X206375000Y-42800000D03*
X206375000Y-46100000D03*
X206375000Y-23750000D03*
X206375000Y-27050000D03*
X187325000Y-80900000D03*
X187325000Y-84200000D03*
X187325000Y-61850000D03*
X187325000Y-65150000D03*
X187325000Y-42800000D03*
X187325000Y-46100000D03*
X187325000Y-23750000D03*
X187325000Y-27050000D03*
X168275000Y-80900000D03*
X168275000Y-84200000D03*
X168275000Y-61850000D03*
X168275000Y-65150000D03*
X168275000Y-42800000D03*
X168275000Y-46100000D03*
X168275000Y-23750000D03*
X168275000Y-27050000D03*
X130175000Y-80900000D03*
X130175000Y-84200000D03*
X130175000Y-61850000D03*
X130175000Y-65150000D03*
X130175000Y-42800000D03*
X130175000Y-46100000D03*
X130175000Y-23750000D03*
X130175000Y-27050000D03*
X111125000Y-80900000D03*
X111125000Y-84200000D03*
X111125000Y-61850000D03*
X111125000Y-65150000D03*
X111125000Y-42800000D03*
X111125000Y-46100000D03*
X111125000Y-23750000D03*
X111125000Y-27050000D03*
X92075000Y-80900000D03*
X92075000Y-84200000D03*
X92075000Y-61850000D03*
X92075000Y-65150000D03*
X92075000Y-42800000D03*
X92075000Y-46100000D03*
X92075000Y-23750000D03*
X92075000Y-27050000D03*
X73025000Y-80900000D03*
X73025000Y-84200000D03*
X73025000Y-61850000D03*
X73025000Y-65150000D03*
X73025000Y-42800000D03*
X73025000Y-46100000D03*
X73025000Y-23750000D03*
X73025000Y-27050000D03*
X53975000Y-80900000D03*
X53975000Y-84200000D03*
X53975000Y-61850000D03*
X53975000Y-65150000D03*
X53975000Y-42800000D03*
X53975000Y-46100000D03*
X53975000Y-23750000D03*
X53975000Y-27050000D03*
X34925000Y-80900000D03*
X34925000Y-84200000D03*
X34925000Y-61850000D03*
X34925000Y-65150000D03*
X34925000Y-42800000D03*
X34925000Y-46100000D03*
X34925000Y-23750000D03*
X34925000Y-27050000D03*
M02*
