M48
; DRILL file {KiCad (5.1.5)-3} date 7/4/2020 2:31:32 PM
; FORMAT={-:-/ absolute / metric / decimal}
; #@! TF.CreationDate,2020-07-04T14:31:32-05:00
; #@! TF.GenerationSoftware,Kicad,Pcbnew,(5.1.5)-3
; #@! TF.FileFunction,Plated,1,2,PTH
FMAT,2
METRIC
T1C0.400
T2C1.040
T3C1.100
T4C1.200
%
G90
G05
T1
X129.667Y-31.703
X129.667Y-32.703
X129.667Y-33.703
X129.667Y-34.703
X129.667Y-35.703
X129.667Y-36.703
X145.796Y-45.466
X149.606Y-45.466
X168.91Y-32.147
X168.91Y-33.147
X168.91Y-34.211
X168.91Y-35.211
X168.91Y-36.211
X168.91Y-37.211
T2
X271.78Y-30.1
X274.32Y-30.1
X214.63Y-68.2
X217.17Y-68.2
X81.28Y-87.25
X83.82Y-87.25
X81.28Y-30.1
X83.82Y-30.1
X100.33Y-30.1
X102.87Y-30.1
X24.13Y-30.1
X26.67Y-30.1
X214.63Y-87.25
X217.17Y-87.25
X271.78Y-87.25
X274.32Y-87.25
X43.18Y-87.25
X45.72Y-87.25
X100.33Y-68.2
X102.87Y-68.2
X119.38Y-87.25
X121.92Y-87.25
X119.38Y-30.1
X121.92Y-30.1
X195.58Y-87.25
X198.12Y-87.25
X252.73Y-49.15
X255.27Y-49.15
X233.68Y-49.15
X236.22Y-49.15
X119.38Y-49.15
X121.92Y-49.15
X176.53Y-87.25
X179.07Y-87.25
X214.63Y-30.1
X217.17Y-30.1
X233.68Y-68.2
X236.22Y-68.2
X233.68Y-30.1
X236.22Y-30.1
X24.13Y-49.15
X26.67Y-49.15
X176.53Y-30.1
X179.07Y-30.1
X176.53Y-49.15
X179.07Y-49.15
X252.73Y-68.2
X255.27Y-68.2
X195.58Y-68.2
X198.12Y-68.2
X62.23Y-49.15
X64.77Y-49.15
X252.73Y-87.25
X255.27Y-87.25
X62.23Y-30.1
X64.77Y-30.1
X100.33Y-87.25
X102.87Y-87.25
X100.33Y-49.15
X102.87Y-49.15
X81.28Y-49.15
X83.82Y-49.15
X252.73Y-30.1
X255.27Y-30.1
X271.78Y-68.2
X274.32Y-68.2
X43.18Y-68.2
X45.72Y-68.2
X233.68Y-87.25
X236.22Y-87.25
X24.13Y-68.2
X26.67Y-68.2
X43.18Y-49.15
X45.72Y-49.15
X195.58Y-30.1
X198.12Y-30.1
X176.53Y-68.2
X179.07Y-68.2
X119.38Y-68.2
X121.92Y-68.2
X214.63Y-49.15
X217.17Y-49.15
X271.78Y-49.15
X274.32Y-49.15
X62.23Y-68.2
X64.77Y-68.2
X24.13Y-87.25
X26.67Y-87.25
X43.18Y-30.1
X45.72Y-30.1
X195.58Y-49.15
X198.12Y-49.15
X62.23Y-87.25
X64.77Y-87.25
X81.28Y-68.2
X83.82Y-68.2
T3
X141.415Y-16.796
X141.415Y-19.336
X141.415Y-21.876
X141.415Y-24.416
X141.415Y-26.956
X141.415Y-29.496
X141.415Y-32.036
X141.415Y-34.576
X141.415Y-37.116
X141.415Y-39.656
X141.415Y-42.196
X141.415Y-44.736
X156.654Y-16.796
X156.654Y-19.336
X156.654Y-21.876
X156.654Y-24.416
X156.654Y-26.956
X156.654Y-29.496
X156.654Y-32.036
X156.654Y-34.576
X156.654Y-37.116
X156.654Y-39.656
X156.654Y-42.196
X156.654Y-44.736
T4
X120.65Y-19.5
X125.65Y-21.6
X196.85Y-76.65
X201.85Y-78.75
X254.0Y-38.55
X259.0Y-40.65
X234.95Y-38.55
X239.95Y-40.65
X120.65Y-38.55
X125.65Y-40.65
X177.8Y-76.65
X182.8Y-78.75
X215.9Y-19.5
X220.9Y-21.6
X234.95Y-57.6
X239.95Y-59.7
X234.95Y-19.5
X239.95Y-21.6
X25.4Y-38.55
X30.4Y-40.65
X177.8Y-19.5
X182.8Y-21.6
X177.8Y-38.55
X182.8Y-40.65
X254.0Y-57.6
X259.0Y-59.7
X196.85Y-57.6
X201.85Y-59.7
X63.5Y-38.55
X68.5Y-40.65
X254.0Y-76.65
X259.0Y-78.75
X63.5Y-19.5
X68.5Y-21.6
X101.6Y-76.65
X106.6Y-78.75
X101.6Y-38.55
X106.6Y-40.65
X82.55Y-38.55
X87.55Y-40.65
X254.0Y-19.5
X259.0Y-21.6
X273.05Y-57.6
X278.05Y-59.7
X44.45Y-57.6
X49.45Y-59.7
X234.95Y-76.65
X239.95Y-78.75
X25.4Y-57.6
X30.4Y-59.7
X44.45Y-38.55
X49.45Y-40.65
X196.85Y-19.5
X201.85Y-21.6
X177.8Y-57.6
X182.8Y-59.7
X120.65Y-57.6
X125.65Y-59.7
X215.9Y-38.55
X220.9Y-40.65
X273.05Y-38.55
X278.05Y-40.65
X63.5Y-57.6
X68.5Y-59.7
X25.4Y-76.65
X30.4Y-78.75
X44.45Y-19.5
X49.45Y-21.6
X196.85Y-38.55
X201.85Y-40.65
X63.5Y-76.65
X68.5Y-78.75
X82.55Y-57.6
X87.55Y-59.7
X273.05Y-19.5
X278.05Y-21.6
X215.9Y-57.6
X220.9Y-59.7
X82.55Y-76.65
X87.55Y-78.75
X82.55Y-19.5
X87.55Y-21.6
X101.6Y-19.5
X106.6Y-21.6
X25.4Y-19.5
X30.4Y-21.6
X215.9Y-76.65
X220.9Y-78.75
X273.05Y-76.65
X278.05Y-78.75
X44.45Y-76.65
X49.45Y-78.75
X101.6Y-57.6
X106.6Y-59.7
X120.65Y-76.65
X125.65Y-78.75
T0
M30
