M48
; DRILL file {KiCad (5.1.5)-3} date 7/5/2020 9:00:12 PM
; FORMAT={-:-/ absolute / metric / decimal}
; #@! TF.CreationDate,2020-07-05T21:00:12-05:00
; #@! TF.GenerationSoftware,Kicad,Pcbnew,(5.1.5)-3
; #@! TF.FileFunction,NonPlated,1,2,NPTH
FMAT,2
METRIC
T1C1.200
T2C1.900
T3C3.400
%
G90
G05
T1
X191.63Y-29.6
X96.38Y-29.6
X172.58Y-48.65
X58.28Y-29.6
X248.78Y-29.6
X210.68Y-67.7
X77.33Y-86.75
X96.38Y-67.7
X210.68Y-86.75
X58.28Y-67.7
X267.83Y-29.6
X248.78Y-48.65
X96.38Y-86.75
X191.63Y-67.7
X20.18Y-29.6
X20.18Y-86.75
X267.83Y-86.75
X39.23Y-86.75
X248.78Y-67.7
X39.23Y-48.65
X210.68Y-29.6
X115.43Y-86.75
X172.58Y-67.7
X39.23Y-29.6
X39.23Y-67.7
X229.73Y-48.65
X58.28Y-48.65
X248.78Y-86.75
X210.68Y-48.65
X77.33Y-67.7
X77.33Y-48.65
X191.63Y-48.65
X58.28Y-86.75
X115.43Y-29.6
X20.18Y-67.7
X267.83Y-67.7
X267.83Y-48.65
X115.43Y-48.65
X115.43Y-67.7
X172.58Y-86.75
X229.73Y-86.75
X191.63Y-86.75
X96.38Y-48.65
X77.33Y-29.6
X172.58Y-29.6
X20.18Y-48.65
X229.73Y-67.7
X229.73Y-29.6
T2
X191.35Y-25.4
X202.35Y-25.4
X96.1Y-25.4
X107.1Y-25.4
X172.3Y-44.45
X183.3Y-44.45
X58.0Y-25.4
X69.0Y-25.4
X248.5Y-25.4
X259.5Y-25.4
X210.4Y-63.5
X221.4Y-63.5
X77.05Y-82.55
X88.05Y-82.55
X96.1Y-63.5
X107.1Y-63.5
X210.4Y-82.55
X221.4Y-82.55
X58.0Y-63.5
X69.0Y-63.5
X267.55Y-25.4
X278.55Y-25.4
X248.5Y-44.45
X259.5Y-44.45
X96.1Y-82.55
X107.1Y-82.55
X191.35Y-63.5
X202.35Y-63.5
X19.9Y-25.4
X30.9Y-25.4
X19.9Y-82.55
X30.9Y-82.55
X267.55Y-82.55
X278.55Y-82.55
X38.95Y-82.55
X49.95Y-82.55
X248.5Y-63.5
X259.5Y-63.5
X38.95Y-44.45
X49.95Y-44.45
X210.4Y-25.4
X221.4Y-25.4
X115.15Y-82.55
X126.15Y-82.55
X172.3Y-63.5
X183.3Y-63.5
X38.95Y-25.4
X49.95Y-25.4
X38.95Y-63.5
X49.95Y-63.5
X229.45Y-44.45
X240.45Y-44.45
X58.0Y-44.45
X69.0Y-44.45
X248.5Y-82.55
X259.5Y-82.55
X210.4Y-44.45
X221.4Y-44.45
X77.05Y-63.5
X88.05Y-63.5
X77.05Y-44.45
X88.05Y-44.45
X191.35Y-44.45
X202.35Y-44.45
X58.0Y-82.55
X69.0Y-82.55
X115.15Y-25.4
X126.15Y-25.4
X19.9Y-63.5
X30.9Y-63.5
X267.55Y-63.5
X278.55Y-63.5
X267.55Y-44.45
X278.55Y-44.45
X115.15Y-44.45
X126.15Y-44.45
X115.15Y-63.5
X126.15Y-63.5
X172.3Y-82.55
X183.3Y-82.55
X229.45Y-82.55
X240.45Y-82.55
X191.35Y-82.55
X202.35Y-82.55
X96.1Y-44.45
X107.1Y-44.45
X77.05Y-25.4
X88.05Y-25.4
X172.3Y-25.4
X183.3Y-25.4
X19.9Y-44.45
X30.9Y-44.45
X229.45Y-63.5
X240.45Y-63.5
X229.45Y-25.4
X240.45Y-25.4
T3
X196.85Y-63.5
X25.4Y-25.4
X25.4Y-82.55
X273.05Y-82.55
X44.45Y-82.55
X254.0Y-63.5
X44.45Y-44.45
X215.9Y-25.4
X120.65Y-82.55
X177.8Y-63.5
X44.45Y-25.4
X44.45Y-63.5
X234.95Y-44.45
X63.5Y-44.45
X254.0Y-82.55
X215.9Y-44.45
X82.55Y-63.5
X82.55Y-44.45
X196.85Y-44.45
X63.5Y-82.55
X120.65Y-25.4
X25.4Y-63.5
X273.05Y-63.5
X273.05Y-44.45
X120.65Y-44.45
X120.65Y-63.5
X177.8Y-82.55
X234.95Y-82.55
X196.85Y-82.55
X101.6Y-44.45
X82.55Y-25.4
X177.8Y-25.4
X25.4Y-44.45
X234.95Y-63.5
X234.95Y-25.4
X196.85Y-25.4
X101.6Y-25.4
X177.8Y-44.45
X63.5Y-25.4
X254.0Y-25.4
X215.9Y-63.5
X82.55Y-82.55
X101.6Y-63.5
X215.9Y-82.55
X63.5Y-63.5
X273.05Y-25.4
X254.0Y-44.45
X101.6Y-82.55
T0
M30
